<?xml version="1.0" encoding="utf-8"?>
<!-- Generator: Adobe Illustrator 24.1.1, SVG Export Plug-In . SVG Version: 6.00 Build 0)  -->
<svg version="1.1" id="Calque_1" xmlns="http://www.w3.org/2000/svg" xmlns:xlink="http://www.w3.org/1999/xlink" x="0px" y="0px"
	 viewBox="0 0 277 94" style="enable-background:new 0 0 277 94;" xml:space="preserve">
<style type="text/css">
	.st0{fill:#90FF64;stroke:#FFFFFF;stroke-width:0.25;stroke-miterlimit:10;}
	.st1{fill:#47FF2E;}
	.st2{fill:#47FF2E;stroke:#FFFFFF;stroke-width:0.25;stroke-miterlimit:10;}
	.st3{fill:#5DFF12;stroke:#FFFFFF;stroke-width:0.25;stroke-miterlimit:10;}
	.st4{fill:#5DFF12;}
	.st5{font-family:'MyriadPro-Regular';}
	.st6{font-size:12px;}
	.st7{fill:#90FF64;}
	.st8{fill:#47FF2E;stroke:#FFFFFF;stroke-width:0.5;stroke-miterlimit:10;}
	.st9{fill:#568149;}
	.st10{fill:#A5D47D;}
	.st11{fill:#568149;stroke:#FFFFFF;stroke-width:0.5;stroke-miterlimit:10;}
	.st12{fill:#A5D47D;stroke:#FFFFFF;stroke-width:0.5;stroke-miterlimit:10;}
	.st13{fill:url(#SVGID_1_);}
</style>
<g>
	<g id="logo_1">
		<g>
			<path class="st0" d="M12.7,8.1c0.5-0.1,1.2-0.2,1.9-0.2c1,0,1.7,0.2,2.2,0.6c0.4,0.3,0.7,0.8,0.7,1.4c0,0.8-0.5,1.5-1.4,1.8v0
				c0.8,0.2,1.7,0.8,1.7,2c0,0.7-0.3,1.2-0.7,1.6c-0.6,0.5-1.5,0.8-2.8,0.8c-0.7,0-1.3,0-1.6-0.1V8.1z M13.7,11.4h0.9
				c1.1,0,1.8-0.6,1.8-1.4c0-0.9-0.7-1.3-1.8-1.3c-0.5,0-0.8,0-0.9,0.1V11.4z M13.7,15.3c0.2,0,0.5,0,0.9,0c1.1,0,2.1-0.4,2.1-1.6
				c0-1.1-0.9-1.6-2.1-1.6h-0.9V15.3z"/>
			<path class="st0" d="M19.8,13.4c0,1.4,0.9,2,2,2c0.8,0,1.2-0.1,1.6-0.3l0.2,0.8c-0.4,0.2-1,0.4-1.9,0.4c-1.8,0-2.9-1.2-2.9-2.9
				s1-3.1,2.7-3.1c1.9,0,2.4,1.7,2.4,2.7c0,0.2,0,0.4,0,0.5H19.8z M22.9,12.6c0-0.7-0.3-1.7-1.5-1.7c-1.1,0-1.5,1-1.6,1.7H22.9z"/>
			<path class="st1" d="M24.4,8.7c0.2,0.3,0.1,0.7-0.3,0.9c-0.3,0.2-0.7,0.1-0.9-0.2c-0.2-0.3-0.1-0.7,0.2-0.9
				C23.8,8.3,24.2,8.4,24.4,8.7z M27.8,16.4c-0.7,0.4-1.6,0.1-1.9-0.7l-1.8-5l0.9-0.5l3.1,4.3C28.6,15.2,28.5,16,27.8,16.4
				L27.8,16.4z"/>
			<path class="st0" d="M28,11.8c0-0.6,0-1.1,0-1.6h0.9l0.1,1h0c0.3-0.6,1-1.1,1.9-1.1c0.8,0,2.1,0.5,2.1,2.5v3.5h-1.1v-3.3
				c0-0.9-0.3-1.7-1.3-1.7c-0.7,0-1.2,0.5-1.4,1.1c0,0.1-0.1,0.3-0.1,0.5v3.5H28V11.8z"/>
			<path class="st1" d="M49.1,12.1c0-0.7,0-1.3,0-1.8H50l0,1.1h0c0.3-0.8,0.9-1.3,1.6-1.3c0.1,0,0.2,0,0.3,0v1c-0.1,0-0.2,0-0.4,0
				c-0.7,0-1.3,0.6-1.4,1.4c0,0.1,0,0.3,0,0.5v3.1h-1V12.1z"/>
			<path class="st1" d="M53.5,13.4c0,1.4,0.9,2,2,2c0.8,0,1.2-0.1,1.6-0.3l0.2,0.8c-0.4,0.2-1,0.4-1.9,0.4c-1.8,0-2.9-1.2-2.9-2.9
				s1-3.1,2.7-3.1c1.9,0,2.4,1.7,2.4,2.7c0,0.2,0,0.4,0,0.5H53.5z M56.6,12.6c0-0.7-0.3-1.7-1.5-1.7c-1.1,0-1.5,1-1.6,1.7H56.6z"/>
			<path class="st1" d="M59.5,13.4c0,1.4,0.9,2,2,2c0.8,0,1.2-0.1,1.6-0.3l0.2,0.8c-0.4,0.2-1,0.4-1.9,0.4c-1.8,0-2.9-1.2-2.9-2.9
				s1-3.1,2.7-3.1c1.9,0,2.4,1.7,2.4,2.7c0,0.2,0,0.4,0,0.5H59.5z M62.6,12.6c0-0.7-0.3-1.7-1.5-1.7c-1.1,0-1.5,1-1.6,1.7H62.6z"/>
			<path class="st1" d="M65,11.8c0-0.6,0-1.1,0-1.6h0.9l0.1,1h0c0.3-0.6,1-1.1,1.9-1.1c0.8,0,2.1,0.5,2.1,2.5c0,0.4,0.4,2.7,1.1,4.4
				c0.2,0.5,0.5,1.2,1,2c-0.3-0.1-0.6-0.2-0.8-0.4c-1.3-0.7-2-1.9-2.3-2.5c0-1.1,0-2.2,0-3.3c0-0.9-0.3-1.7-1.3-1.7
				c-0.7,0-1.2,0.5-1.4,1.1c0,0.1-0.1,0.3-0.1,0.5v3.5H65V11.8z"/>
			<path class="st0" d="M40.5,17c-0.5,0.1-1.4,0.4-2.5,0.3c-1.2-0.1-2.2-0.4-3-1.2c-0.7-0.7-1.1-1.8-1-3.1c0.1-2.4,1.8-4.1,4.6-4
				c0.9,0,1.7,0.3,2,0.5l-0.3,0.8c-0.4-0.2-1-0.4-1.8-0.4c-2-0.1-3.3,1.1-3.4,3.1c-0.1,2,1.1,3.3,3,3.4c0.7,0,1.2,0,1.4-0.2l0.1-2.4
				l-1.6-0.1l0-0.8l2.7,0.1L40.5,17z"/>
			<path class="st1" d="M47.5,17c-0.5,0.1-1.4,0.4-2.5,0.3c-1.2-0.1-2.2-0.4-3-1.2c-0.7-0.7-1.1-1.8-1-3.1c0.1-2.4,1.8-4.1,4.6-4
				c0.9,0,1.7,0.3,2,0.5l-0.3,0.8c-0.4-0.2-1-0.4-1.8-0.4c-2-0.1-3.3,1.1-3.4,3.1c-0.1,2,1.1,3.3,3,3.4c0.7,0,1.2,0,1.4-0.2l0.1-2.4
				l-1.6-0.1l0-0.8l2.7,0.1L47.5,17z"/>
		</g>
		<g>
			<line class="st2" x1="12" y1="18.6" x2="40" y2="18.6"/>
			<rect x="12" y="18.3" class="st3" width="28" height="0.8"/>
		</g>
		<g>
			<line class="st1" x1="43" y1="7.6" x2="71" y2="7.6"/>
			<rect x="43" y="7.3" class="st4" width="28" height="0.7"/>
		</g>
		<g>
			<line class="st1" x1="42" y1="7.6" x2="70" y2="7.6"/>
			<rect x="42" y="7.3" class="st1" width="28" height="0.7"/>
		</g>
	</g>
	<g id="logo_2">
		<g>
			<path class="st0" d="M11.7,25.1c0.5-0.1,1.2-0.2,1.9-0.2c1,0,1.7,0.2,2.2,0.6c0.4,0.3,0.7,0.8,0.7,1.4c0,0.8-0.5,1.5-1.4,1.8v0
				c0.8,0.2,1.7,0.8,1.7,2c0,0.7-0.3,1.2-0.7,1.6c-0.6,0.5-1.5,0.8-2.8,0.8c-0.7,0-1.3,0-1.6-0.1V25.1z M12.7,28.4h0.9
				c1.1,0,1.8-0.6,1.8-1.4c0-0.9-0.7-1.3-1.8-1.3c-0.5,0-0.8,0-0.9,0.1V28.4z M12.7,32.3c0.2,0,0.5,0,0.9,0c1.1,0,2.1-0.4,2.1-1.6
				c0-1.1-0.9-1.6-2.1-1.6h-0.9V32.3z"/>
			<path class="st0" d="M18.8,30.4c0,1.4,0.9,2,2,2c0.8,0,1.2-0.1,1.6-0.3l0.2,0.8c-0.4,0.2-1,0.4-1.9,0.4c-1.8,0-2.9-1.2-2.9-2.9
				s1-3.1,2.7-3.1c1.9,0,2.4,1.7,2.4,2.7c0,0.2,0,0.4,0,0.5H18.8z M21.9,29.6c0-0.7-0.3-1.7-1.5-1.7c-1.1,0-1.5,1-1.6,1.7H21.9z"/>
			<path class="st1" d="M25.2,25.6c0,0.4-0.2,0.7-0.6,0.7c-0.4,0-0.6-0.3-0.7-0.6c0-0.4,0.3-0.7,0.6-0.7C25,25,25.2,25.2,25.2,25.6z
				 M24.7,34c-0.8,0-1.4-0.7-1.3-1.5l0.7-5.2l1.1,0l0.8,5.3C26.1,33.3,25.5,34,24.7,34L24.7,34z"/>
			<path class="st0" d="M27,28.8c0-0.6,0-1.1,0-1.6h0.9l0.1,1h0c0.3-0.6,1-1.1,1.9-1.1c0.8,0,2.1,0.5,2.1,2.5v3.5h-1.1v-3.3
				c0-0.9-0.3-1.7-1.3-1.7c-0.7,0-1.2,0.5-1.4,1.1c0,0.1-0.1,0.3-0.1,0.5v3.5H27V28.8z"/>
			<path class="st1" d="M48.1,29.1c0-0.7,0-1.3,0-1.8H49l0,1.1h0c0.3-0.8,0.9-1.3,1.6-1.3c0.1,0,0.2,0,0.3,0v1c-0.1,0-0.2,0-0.4,0
				c-0.7,0-1.3,0.6-1.4,1.4c0,0.1,0,0.3,0,0.5v3.1h-1V29.1z"/>
			<path class="st1" d="M52.5,30.4c0,1.4,0.9,2,2,2c0.8,0,1.2-0.1,1.6-0.3l0.2,0.8c-0.4,0.2-1,0.4-1.9,0.4c-1.8,0-2.9-1.2-2.9-2.9
				s1-3.1,2.7-3.1c1.9,0,2.4,1.7,2.4,2.7c0,0.2,0,0.4,0,0.5H52.5z M55.6,29.6c0-0.7-0.3-1.7-1.5-1.7c-1.1,0-1.5,1-1.6,1.7H55.6z"/>
			<path class="st1" d="M58.5,30.4c0,1.4,0.9,2,2,2c0.8,0,1.2-0.1,1.6-0.3l0.2,0.8c-0.4,0.2-1,0.4-1.9,0.4c-1.8,0-2.9-1.2-2.9-2.9
				s1-3.1,2.7-3.1c1.9,0,2.4,1.7,2.4,2.7c0,0.2,0,0.4,0,0.5H58.5z M61.6,29.6c0-0.7-0.3-1.7-1.5-1.7c-1.1,0-1.5,1-1.6,1.7H61.6z"/>
			<path class="st1" d="M64,28.8c0-0.6,0-1.1,0-1.6h0.9l0.1,1h0c0.3-0.6,1-1.1,1.9-1.1c0.8,0,2.1,0.5,2.1,2.5c0,0.4,0.4,2.7,1.1,4.4
				c0.2,0.5,0.5,1.2,1,2c-0.3-0.1-0.6-0.2-0.8-0.4c-1.3-0.7-2-1.9-2.3-2.5c0-1.1,0-2.2,0-3.3c0-0.9-0.3-1.7-1.3-1.7
				c-0.7,0-1.2,0.5-1.4,1.1c0,0.1-0.1,0.3-0.1,0.5v3.5H64V28.8z"/>
			<path class="st0" d="M39.5,34c-0.5,0.1-1.4,0.4-2.5,0.3c-1.2-0.1-2.2-0.4-3-1.2c-0.7-0.7-1.1-1.8-1-3.1c0.1-2.4,1.8-4.1,4.6-4
				c0.9,0,1.7,0.3,2,0.5l-0.3,0.8c-0.4-0.2-1-0.4-1.8-0.4c-2-0.1-3.3,1.1-3.4,3.1c-0.1,2,1.1,3.3,3,3.4c0.7,0,1.2,0,1.4-0.2l0.1-2.4
				l-1.6-0.1l0-0.8l2.7,0.1L39.5,34z"/>
			<path class="st1" d="M46.5,34c-0.5,0.1-1.4,0.4-2.5,0.3c-1.2-0.1-2.2-0.4-3-1.2c-0.7-0.7-1.1-1.8-1-3.1c0.1-2.4,1.8-4.1,4.6-4
				c0.9,0,1.7,0.3,2,0.5l-0.3,0.8c-0.4-0.2-1-0.4-1.8-0.4c-2-0.1-3.3,1.1-3.4,3.1c-0.1,2,1.1,3.3,3,3.4c0.7,0,1.2,0,1.4-0.2l0.1-2.4
				l-1.6-0.1l0-0.8l2.7,0.1L46.5,34z"/>
		</g>
		<g>
			<line class="st2" x1="11" y1="35.6" x2="39" y2="35.6"/>
			<rect x="11" y="35.3" class="st3" width="28" height="0.8"/>
		</g>
		<g>
			<line class="st1" x1="42" y1="24.6" x2="70" y2="24.6"/>
			<rect x="42" y="24.3" class="st4" width="28" height="0.7"/>
		</g>
		<g>
			<line class="st1" x1="41" y1="24.6" x2="69" y2="24.6"/>
			<rect x="41" y="24.3" class="st1" width="28" height="0.7"/>
		</g>
	</g>
	<g id="logo_3">
		<g>
			<path class="st0" d="M144.7,8.1c0.5-0.1,1.2-0.2,1.9-0.2c1,0,1.7,0.2,2.2,0.6c0.4,0.3,0.7,0.8,0.7,1.4c0,0.8-0.5,1.5-1.4,1.8v0
				c0.8,0.2,1.7,0.8,1.7,2c0,0.7-0.3,1.2-0.7,1.6c-0.6,0.5-1.5,0.8-2.8,0.8c-0.7,0-1.3,0-1.6-0.1V8.1z M145.7,11.4h0.9
				c1.1,0,1.8-0.6,1.8-1.4c0-0.9-0.7-1.3-1.8-1.3c-0.5,0-0.8,0-0.9,0.1V11.4z M145.7,15.3c0.2,0,0.5,0,0.9,0c1.1,0,2.1-0.4,2.1-1.6
				c0-1.1-0.9-1.6-2.1-1.6h-0.9V15.3z"/>
			<path class="st0" d="M151.8,13.4c0,1.4,0.9,2,2,2c0.8,0,1.2-0.1,1.6-0.3l0.2,0.8c-0.4,0.2-1,0.4-1.9,0.4c-1.8,0-2.9-1.2-2.9-2.9
				s1-3.1,2.7-3.1c1.9,0,2.4,1.7,2.4,2.7c0,0.2,0,0.4,0,0.5H151.8z M154.9,12.6c0-0.7-0.3-1.7-1.5-1.7c-1.1,0-1.5,1-1.6,1.7H154.9z"
				/>
			<path class="st0" d="M160,11.8c0-0.6,0-1.1,0-1.6h0.9l0.1,1h0c0.3-0.6,1-1.1,1.9-1.1c0.8,0,2.1,0.5,2.1,2.5v3.5h-1.1v-3.3
				c0-0.9-0.3-1.7-1.3-1.7c-0.7,0-1.2,0.5-1.4,1.1c0,0.1-0.1,0.3-0.1,0.5v3.5H160V11.8z"/>
			<path class="st1" d="M181.1,12.1c0-0.7,0-1.3,0-1.8h0.9l0,1.1h0c0.3-0.8,0.9-1.3,1.6-1.3c0.1,0,0.2,0,0.3,0v1c-0.1,0-0.2,0-0.4,0
				c-0.7,0-1.3,0.6-1.4,1.4c0,0.1,0,0.3,0,0.5v3.1h-1V12.1z"/>
			<path class="st1" d="M185.5,13.4c0,1.4,0.9,2,2,2c0.8,0,1.2-0.1,1.6-0.3l0.2,0.8c-0.4,0.2-1,0.4-1.9,0.4c-1.8,0-2.9-1.2-2.9-2.9
				s1-3.1,2.7-3.1c1.9,0,2.4,1.7,2.4,2.7c0,0.2,0,0.4,0,0.5H185.5z M188.6,12.6c0-0.7-0.3-1.7-1.5-1.7c-1.1,0-1.5,1-1.6,1.7H188.6z"
				/>
			<path class="st1" d="M191.5,13.4c0,1.4,0.9,2,2,2c0.8,0,1.2-0.1,1.6-0.3l0.2,0.8c-0.4,0.2-1,0.4-1.9,0.4c-1.8,0-2.9-1.2-2.9-2.9
				s1-3.1,2.7-3.1c1.9,0,2.4,1.7,2.4,2.7c0,0.2,0,0.4,0,0.5H191.5z M194.6,12.6c0-0.7-0.3-1.7-1.5-1.7c-1.1,0-1.5,1-1.6,1.7H194.6z"
				/>
			<path class="st1" d="M197,11.8c0-0.6,0-1.1,0-1.6h0.9l0.1,1h0c0.3-0.6,1-1.1,1.9-1.1c0.8,0,2.1,0.5,2.1,2.5
				c0,0.4,0.4,2.7,1.1,4.4c0.2,0.5,0.5,1.2,1,2c-0.3-0.1-0.6-0.2-0.8-0.4c-1.3-0.7-2-1.9-2.3-2.5c0-1.1,0-2.2,0-3.3
				c0-0.9-0.3-1.7-1.3-1.7c-0.7,0-1.2,0.5-1.4,1.1c0,0.1-0.1,0.3-0.1,0.5v3.5H197V11.8z"/>
			<path class="st0" d="M172.5,17c-0.5,0.1-1.4,0.4-2.5,0.3c-1.2-0.1-2.2-0.4-3-1.2c-0.7-0.7-1.1-1.8-1-3.1c0.1-2.4,1.8-4.1,4.6-4
				c0.9,0,1.7,0.3,2,0.5l-0.3,0.8c-0.4-0.2-1-0.4-1.8-0.4c-2-0.1-3.3,1.1-3.4,3.1c-0.1,2,1.1,3.3,3,3.4c0.7,0,1.2,0,1.4-0.2l0.1-2.4
				l-1.6-0.1l0-0.8l2.7,0.1L172.5,17z"/>
			<path class="st1" d="M179.5,17c-0.5,0.1-1.4,0.4-2.5,0.3c-1.2-0.1-2.2-0.4-3-1.2c-0.7-0.7-1.1-1.8-1-3.1c0.1-2.4,1.8-4.1,4.6-4
				c0.9,0,1.7,0.3,2,0.5l-0.3,0.8c-0.4-0.2-1-0.4-1.8-0.4c-2-0.1-3.3,1.1-3.4,3.1c-0.1,2,1.1,3.3,3,3.4c0.7,0,1.2,0,1.4-0.2l0.1-2.4
				l-1.6-0.1l0-0.8l2.7,0.1L179.5,17z"/>
		</g>
		<g>
			<line class="st2" x1="144" y1="18.6" x2="172" y2="18.6"/>
			<rect x="144" y="18.3" class="st3" width="28" height="0.8"/>
		</g>
		<g>
			<line class="st1" x1="175" y1="7.6" x2="203" y2="7.6"/>
			<rect x="175" y="7.3" class="st4" width="28" height="0.7"/>
		</g>
		<g>
			<line class="st1" x1="174" y1="7.6" x2="202" y2="7.6"/>
			<rect x="174" y="7.3" class="st1" width="28" height="0.7"/>
		</g>
		<text transform="matrix(1 0 0 1 156.1338 16.0444)" class="st1 st5 st6">i</text>
	</g>
	<g id="logo_4">
		<g>
			<path class="st0" d="M145.5,25.4c0.5-0.1,1.2-0.2,1.9-0.2c1,0,1.7,0.2,2.2,0.6c0.4,0.3,0.7,0.8,0.7,1.4c0,0.8-0.5,1.5-1.4,1.8v0
				c0.8,0.2,1.7,0.8,1.7,2c0,0.7-0.3,1.2-0.7,1.6c-0.6,0.5-1.5,0.8-2.8,0.8c-0.7,0-1.3,0-1.6-0.1V25.4z M146.6,28.7h0.9
				c1.1,0,1.8-0.6,1.8-1.4c0-0.9-0.7-1.3-1.8-1.3c-0.5,0-0.8,0-0.9,0.1V28.7z M146.6,32.6c0.2,0,0.5,0,0.9,0c1.1,0,2.1-0.4,2.1-1.6
				c0-1.1-0.9-1.6-2.1-1.6h-0.9V32.6z"/>
			<path class="st0" d="M152.6,30.7c0,1.4,0.9,2,2,2c0.8,0,1.2-0.1,1.6-0.3l0.2,0.8c-0.4,0.2-1,0.4-1.9,0.4c-1.8,0-2.9-1.2-2.9-2.9
				c0-1.8,1-3.1,2.7-3.1c1.9,0,2.4,1.7,2.4,2.7c0,0.2,0,0.4,0,0.5H152.6z M155.7,29.9c0-0.7-0.3-1.7-1.5-1.7c-1.1,0-1.5,1-1.6,1.7
				H155.7z"/>
			<path class="st0" d="M160.8,29.2c0-0.6,0-1.1,0-1.6h0.9l0.1,1h0c0.3-0.6,1-1.1,1.9-1.1c0.8,0,2.1,0.5,2.1,2.5v3.5h-1.1V30
				c0-0.9-0.3-1.7-1.3-1.7c-0.7,0-1.2,0.5-1.4,1.1c0,0.1-0.1,0.3-0.1,0.5v3.5h-1.1V29.2z"/>
			<path class="st1" d="M180,29.4c0-0.7,0-1.3,0-1.8h0.9l0,1.1h0c0.3-0.8,0.9-1.3,1.6-1.3c0.1,0,0.2,0,0.3,0v1c-0.1,0-0.2,0-0.4,0
				c-0.7,0-1.3,0.6-1.4,1.4c0,0.1,0,0.3,0,0.5v3.1h-1V29.4z"/>
			<path class="st1" d="M184.4,30.7c0,1.4,0.9,2,2,2c0.8,0,1.2-0.1,1.6-0.3l0.2,0.8c-0.4,0.2-1,0.4-1.9,0.4c-1.8,0-2.9-1.2-2.9-2.9
				c0-1.8,1-3.1,2.7-3.1c1.9,0,2.4,1.7,2.4,2.7c0,0.2,0,0.4,0,0.5H184.4z M187.4,29.9c0-0.7-0.3-1.7-1.5-1.7c-1.1,0-1.5,1-1.6,1.7
				H187.4z"/>
			<path class="st1" d="M190.4,30.7c0,1.4,0.9,2,2,2c0.8,0,1.2-0.1,1.6-0.3l0.2,0.8c-0.4,0.2-1,0.4-1.9,0.4c-1.8,0-2.9-1.2-2.9-2.9
				c0-1.8,1-3.1,2.7-3.1c1.9,0,2.4,1.7,2.4,2.7c0,0.2,0,0.4,0,0.5H190.4z M193.5,29.9c0-0.7-0.3-1.7-1.5-1.7c-1.1,0-1.5,1-1.6,1.7
				H193.5z"/>
			<path class="st1" d="M195.8,29.2c0-0.6,0-1.1,0-1.6h0.9l0.1,1h0c0.3-0.6,1-1.1,1.9-1.1c0.8,0,2.1,0.5,2.1,2.5
				c0,0.4,0.4,2.7,1.1,4.4c0.2,0.5,0.5,1.2,1,2c-0.3-0.1-0.6-0.2-0.8-0.4c-1.3-0.7-2-1.9-2.3-2.5c0-1.1,0-2.2,0-3.3
				c0-0.9-0.3-1.7-1.3-1.7c-0.7,0-1.2,0.5-1.4,1.1c0,0.1-0.1,0.3-0.1,0.5v3.5h-1.1V29.2z"/>
			<path class="st1" d="M178.3,34.3c-0.5,0.1-1.4,0.4-2.5,0.3c-1.2-0.1-2.2-0.4-3-1.2c-0.7-0.7-1.1-1.8-1-3.1c0.1-2.4,1.8-4.1,4.6-4
				c0.9,0,1.7,0.3,2,0.5l-0.3,0.8c-0.4-0.2-1-0.4-1.8-0.4c-2-0.1-3.3,1.1-3.4,3.1c-0.1,2,1.1,3.3,3,3.4c0.7,0,1.2,0,1.4-0.2l0.1-2.4
				l-1.6-0.1l0-0.8l2.7,0.1L178.3,34.3z"/>
			<text transform="matrix(1 0 0 1 156.9606 33.3627)" class="st1 st5 st6">i</text>
			<g>
				<path class="st7" d="M167.5,27.7c0.5-0.3,1.1-0.4,1.9-0.4c0.8,0,1.3,0.2,1.8,0.4l0.3-0.8c-0.3-0.2-1.1-0.4-2-0.5
					c-1.1,0-2,0.2-2.7,0.7C167,27.2,167.3,27.4,167.5,27.7z"/>
				<path class="st7" d="M168.8,30.3l0,0.8l1.6,0.1l-0.1,2.4c-0.2,0.1-0.7,0.2-1.4,0.2c-0.7,0-1.3-0.2-1.8-0.6
					c-0.2,0.2-0.6,0.4-1.1,0.4c0.7,0.6,1.6,0.9,2.7,1c1.1,0,2-0.2,2.5-0.3l0.2-3.9L168.8,30.3z"/>
			</g>
		</g>
	</g>
	<g id="logo_4_1_">
		<g>
			<path class="st0" d="M211.5,7.4c0.5-0.1,1.2-0.2,1.9-0.2c1,0,1.7,0.2,2.2,0.6c0.4,0.3,0.7,0.8,0.7,1.4c0,0.8-0.5,1.5-1.4,1.8v0
				c0.8,0.2,1.7,0.8,1.7,2c0,0.7-0.3,1.2-0.7,1.6c-0.6,0.5-1.5,0.8-2.8,0.8c-0.7,0-1.3,0-1.6-0.1V7.4z M212.6,10.7h0.9
				c1.1,0,1.8-0.6,1.8-1.4c0-0.9-0.7-1.3-1.8-1.3c-0.5,0-0.8,0-0.9,0.1V10.7z M212.6,14.6c0.2,0,0.5,0,0.9,0c1.1,0,2.1-0.4,2.1-1.6
				c0-1.1-0.9-1.6-2.1-1.6h-0.9V14.6z"/>
			<path class="st0" d="M218.6,12.7c0,1.4,0.9,2,2,2c0.8,0,1.2-0.1,1.6-0.3l0.2,0.8c-0.4,0.2-1,0.4-1.9,0.4c-1.8,0-2.9-1.2-2.9-2.9
				s1-3.1,2.7-3.1c1.9,0,2.4,1.7,2.4,2.7c0,0.2,0,0.4,0,0.5H218.6z M221.7,11.9c0-0.7-0.3-1.7-1.5-1.7c-1.1,0-1.5,1-1.6,1.7H221.7z"
				/>
			<path class="st0" d="M226.8,11.2c0-0.6,0-1.1,0-1.6h0.9l0.1,1h0c0.3-0.6,1-1.1,1.9-1.1c0.8,0,2.1,0.5,2.1,2.5v3.5h-1.1V12
				c0-0.9-0.3-1.7-1.3-1.7c-0.7,0-1.2,0.5-1.4,1.1c0,0.1-0.1,0.3-0.1,0.5v3.5h-1.1V11.2z"/>
			<path class="st1" d="M241,18.4c0-0.7,0-1.3,0-1.8h0.9l0,1.1h0c0.3-0.8,0.9-1.3,1.6-1.3c0.1,0,0.2,0,0.3,0v1c-0.1,0-0.2,0-0.4,0
				c-0.7,0-1.3,0.6-1.4,1.4c0,0.1,0,0.3,0,0.5v3.1h-1V18.4z"/>
			<path class="st1" d="M245.4,19.7c0,1.4,0.9,2,2,2c0.8,0,1.2-0.1,1.6-0.3l0.2,0.8c-0.4,0.2-1,0.4-1.9,0.4c-1.8,0-2.9-1.2-2.9-2.9
				s1-3.1,2.7-3.1c1.9,0,2.4,1.7,2.4,2.7c0,0.2,0,0.4,0,0.5H245.4z M248.4,18.9c0-0.7-0.3-1.7-1.5-1.7c-1.1,0-1.5,1-1.6,1.7H248.4z"
				/>
			<path class="st1" d="M251.4,19.7c0,1.4,0.9,2,2,2c0.8,0,1.2-0.1,1.6-0.3l0.2,0.8c-0.4,0.2-1,0.4-1.9,0.4c-1.8,0-2.9-1.2-2.9-2.9
				s1-3.1,2.7-3.1c1.9,0,2.4,1.7,2.4,2.7c0,0.2,0,0.4,0,0.5H251.4z M254.5,18.9c0-0.7-0.3-1.7-1.5-1.7c-1.1,0-1.5,1-1.6,1.7H254.5z"
				/>
			<path class="st1" d="M256.8,18.2c0-0.6,0-1.1,0-1.6h0.9l0.1,1h0c0.3-0.6,1-1.1,1.9-1.1c0.8,0,2.1,0.5,2.1,2.5
				c0,0.4,0.4,2.7,1.1,4.4c0.2,0.5,0.5,1.2,1,2c-0.3-0.1-0.6-0.2-0.8-0.4c-1.3-0.7-2-1.9-2.3-2.5c0-1.1,0-2.2,0-3.3
				c0-0.9-0.3-1.7-1.3-1.7c-0.7,0-1.2,0.5-1.4,1.1c0,0.1-0.1,0.3-0.1,0.5v3.5h-1.1V18.2z"/>
			<path class="st1" d="M239.3,22.3c-0.5,0.1-1.4,0.4-2.5,0.3c-1.2-0.1-2.2-0.4-3-1.2c-0.7-0.7-1.1-1.8-1-3.1c0.1-2.4,1.8-4.1,4.6-4
				c0.9,0,1.7,0.3,2,0.5l-0.3,0.8c-0.4-0.2-1-0.4-1.8-0.4c-2-0.1-3.3,1.1-3.4,3.1c-0.1,2,1.1,3.3,3,3.4c0.7,0,1.2,0,1.4-0.2l0.1-2.4
				l-1.6-0.1l0-0.8l2.7,0.1L239.3,22.3z"/>
			<text transform="matrix(1 0 0 1 222.9606 15.3627)" class="st1 st5 st6">i</text>
			<g>
				<path class="st7" d="M233.5,9.7c0.5-0.3,1.1-0.4,1.9-0.4c0.8,0,1.3,0.2,1.8,0.4l0.3-0.8c-0.3-0.2-1.1-0.4-2-0.5
					c-1.1,0-2,0.2-2.7,0.7C233,9.2,233.3,9.4,233.5,9.7z"/>
				<path class="st0" d="M234.8,12.3l0,0.8l1.6,0.1l-0.1,2.4c-0.2,0.1-0.7,0.2-1.4,0.2c-0.7,0-1.3-0.2-1.8-0.6
					c-0.2,0.2-0.6,0.4-1.1,0.4c0.7,0.6,1.6,0.9,2.7,1c1.1,0,2-0.2,2.5-0.3l0.2-3.9L234.8,12.3z"/>
			</g>
		</g>
	</g>
	<g id="logo_6">
		<g>
			<path class="st0" d="M78.7,7.8c0.5-0.1,1.2-0.2,1.9-0.2c1,0,1.7,0.2,2.2,0.6c0.4,0.3,0.7,0.8,0.7,1.4c0,0.8-0.5,1.5-1.4,1.8v0
				c0.8,0.2,1.7,0.8,1.7,2c0,0.7-0.3,1.2-0.7,1.6c-0.6,0.5-1.5,0.8-2.8,0.8c-0.7,0-1.3,0-1.6-0.1V7.8z M79.7,11.1h0.9
				c1.1,0,1.8-0.6,1.8-1.4c0-0.9-0.7-1.3-1.8-1.3c-0.5,0-0.8,0-0.9,0.1V11.1z M79.7,15c0.2,0,0.5,0,0.9,0c1.1,0,2.1-0.4,2.1-1.6
				c0-1.1-0.9-1.6-2.1-1.6h-0.9V15z"/>
			<path class="st0" d="M85.8,13c0,1.4,0.9,2,2,2c0.8,0,1.2-0.1,1.6-0.3l0.2,0.8c-0.4,0.2-1,0.4-1.9,0.4c-1.8,0-2.9-1.2-2.9-2.9
				s1-3.1,2.7-3.1c1.9,0,2.4,1.7,2.4,2.7c0,0.2,0,0.4,0,0.5H85.8z M88.9,12.3c0-0.7-0.3-1.7-1.5-1.7c-1.1,0-1.5,1-1.6,1.7H88.9z"/>
			<path class="st0" d="M94,11.5c0-0.6,0-1.1,0-1.6h0.9l0.1,1h0c0.3-0.6,1-1.1,1.9-1.1c0.8,0,2.1,0.5,2.1,2.5v3.5h-1.1v-3.3
				c0-0.9-0.3-1.7-1.3-1.7c-0.7,0-1.2,0.5-1.4,1.1c0,0.1-0.1,0.3-0.1,0.5v3.5H94V11.5z"/>
			<path class="st1" d="M115.1,11.8c0-0.7,0-1.3,0-1.8h0.9l0,1.1h0c0.3-0.8,0.9-1.3,1.6-1.3c0.1,0,0.2,0,0.3,0v1c-0.1,0-0.2,0-0.4,0
				c-0.7,0-1.3,0.6-1.4,1.4c0,0.1,0,0.3,0,0.5v3.1h-1V11.8z"/>
			<path class="st1" d="M119.5,13c0,1.4,0.9,2,2,2c0.8,0,1.2-0.1,1.6-0.3l0.2,0.8c-0.4,0.2-1,0.4-1.9,0.4c-1.8,0-2.9-1.2-2.9-2.9
				s1-3.1,2.7-3.1c1.9,0,2.4,1.7,2.4,2.7c0,0.2,0,0.4,0,0.5H119.5z M122.6,12.3c0-0.7-0.3-1.7-1.5-1.7c-1.1,0-1.5,1-1.6,1.7H122.6z"
				/>
			<path class="st1" d="M125.6,13c0,1.4,0.9,2,2,2c0.8,0,1.2-0.1,1.6-0.3l0.2,0.8c-0.4,0.2-1,0.4-1.9,0.4c-1.8,0-2.9-1.2-2.9-2.9
				s1-3.1,2.7-3.1c1.9,0,2.4,1.7,2.4,2.7c0,0.2,0,0.4,0,0.5H125.6z M128.6,12.3c0-0.7-0.3-1.7-1.5-1.7c-1.1,0-1.5,1-1.6,1.7H128.6z"
				/>
			<path class="st1" d="M131,11.5c0-0.6,0-1.1,0-1.6h0.9l0.1,1h0c0.3-0.6,1-1.1,1.9-1.1c0.8,0,2.1,0.5,2.1,2.5
				c0,0.4,0.4,2.7,1.1,4.4c0.2,0.5,0.5,1.2,1,2c-0.3-0.1-0.6-0.2-0.8-0.4c-1.3-0.7-2-1.9-2.3-2.5c0-1.1,0-2.2,0-3.3
				c0-0.9-0.3-1.7-1.3-1.7c-0.7,0-1.2,0.5-1.4,1.1c0,0.1-0.1,0.3-0.1,0.5v3.5H131V11.5z"/>
			<path class="st0" d="M100.2,9c0.5-0.1,1.4-0.4,2.5-0.3c1.2,0.1,2.2,0.4,3,1.2c0.7,0.7,1.1,1.8,1,3.1c-0.1,2.4-1.8,4.1-4.6,4
				c-0.9,0-1.7-0.3-2-0.5l0.3-0.8c0.4,0.2,1,0.4,1.8,0.4c2,0.1,3.3-1.1,3.4-3.1c0.1-2-1.1-3.3-3-3.4c-0.7,0-1.2,0-1.4,0.2l-0.1,2.4
				l1.6,0.1l0,0.8l-2.7-0.1L100.2,9z"/>
			<path class="st1" d="M113.5,16.7c-0.5,0.1-1.4,0.4-2.5,0.3c-1.2-0.1-2.2-0.4-3-1.2c-0.7-0.7-1.1-1.8-1-3.1c0.1-2.4,1.8-4.1,4.6-4
				c0.9,0,1.7,0.3,2,0.5l-0.3,0.8c-0.4-0.2-1-0.4-1.8-0.4c-2-0.1-3.3,1.1-3.4,3.1c-0.1,2,1.1,3.3,3,3.4c0.7,0,1.2,0,1.4-0.2l0.1-2.4
				l-1.6-0.1l0-0.8l2.7,0.1L113.5,16.7z"/>
		</g>
		<g>
			<line class="st2" x1="78" y1="18.2" x2="106" y2="18.2"/>
			<rect x="78" y="17.9" class="st3" width="28" height="0.8"/>
		</g>
		<g>
			<line class="st1" x1="109" y1="7.2" x2="137" y2="7.2"/>
			<rect x="109" y="6.9" class="st4" width="28" height="0.7"/>
		</g>
		<g>
			<line class="st1" x1="108" y1="7.2" x2="136" y2="7.2"/>
			<rect x="108" y="6.9" class="st1" width="28" height="0.7"/>
		</g>
		<text transform="matrix(1 0 0 1 90.1453 15.7131)" class="st1 st5 st6">i</text>
	</g>
	<g id="logo_5_1_">
		<g>
			<path class="st0" d="M76.7,24.8c0.5-0.1,1.2-0.2,1.9-0.2c1,0,1.7,0.2,2.2,0.6c0.4,0.3,0.7,0.8,0.7,1.4c0,0.8-0.5,1.5-1.4,1.8v0
				c0.8,0.2,1.7,0.8,1.7,2c0,0.7-0.3,1.2-0.7,1.6c-0.6,0.5-1.5,0.8-2.8,0.8c-0.7,0-1.3,0-1.6-0.1V24.8z M77.7,28.1h0.9
				c1.1,0,1.8-0.6,1.8-1.4c0-0.9-0.7-1.3-1.8-1.3c-0.5,0-0.8,0-0.9,0.1V28.1z M77.7,32c0.2,0,0.5,0,0.9,0c1.1,0,2.1-0.4,2.1-1.6
				c0-1.1-0.9-1.6-2.1-1.6h-0.9V32z"/>
			<path class="st0" d="M83.8,30c0,1.4,0.9,2,2,2c0.8,0,1.2-0.1,1.6-0.3l0.2,0.8c-0.4,0.2-1,0.4-1.9,0.4c-1.8,0-2.9-1.2-2.9-2.9
				s1-3.1,2.7-3.1c1.9,0,2.4,1.7,2.4,2.7c0,0.2,0,0.4,0,0.5H83.8z M86.9,29.3c0-0.7-0.3-1.7-1.5-1.7c-1.1,0-1.5,1-1.6,1.7H86.9z"/>
			<path class="st7" d="M92,28.5c0-0.6,0-1.1,0-1.6h0.9l0.1,1h0c0.3-0.6,1-1.1,1.9-1.1c0.8,0,2.1,0.5,2.1,2.5v3.5h-1.1v-3.3
				c0-0.9-0.3-1.7-1.3-1.7c-0.7,0-1.2,0.5-1.4,1.1c0,0.1-0.1,0.3-0.1,0.5v3.5H92V28.5z"/>
			<path class="st1" d="M113.1,28.8c0-0.7,0-1.3,0-1.8h0.9l0,1.1h0c0.3-0.8,0.9-1.3,1.6-1.3c0.1,0,0.2,0,0.3,0v1c-0.1,0-0.2,0-0.4,0
				c-0.7,0-1.3,0.6-1.4,1.4c0,0.1,0,0.3,0,0.5v3.1h-1V28.8z"/>
			<path class="st1" d="M117.5,30c0,1.4,0.9,2,2,2c0.8,0,1.2-0.1,1.6-0.3l0.2,0.8c-0.4,0.2-1,0.4-1.9,0.4c-1.8,0-2.9-1.2-2.9-2.9
				s1-3.1,2.7-3.1c1.9,0,2.4,1.7,2.4,2.7c0,0.2,0,0.4,0,0.5H117.5z M120.6,29.3c0-0.7-0.3-1.7-1.5-1.7c-1.1,0-1.5,1-1.6,1.7H120.6z"
				/>
			<path class="st1" d="M123.6,30c0,1.4,0.9,2,2,2c0.8,0,1.2-0.1,1.6-0.3l0.2,0.8c-0.4,0.2-1,0.4-1.9,0.4c-1.8,0-2.9-1.2-2.9-2.9
				s1-3.1,2.7-3.1c1.9,0,2.4,1.7,2.4,2.7c0,0.2,0,0.4,0,0.5H123.6z M126.6,29.3c0-0.7-0.3-1.7-1.5-1.7c-1.1,0-1.5,1-1.6,1.7H126.6z"
				/>
			<path class="st1" d="M129,28.5c0-0.6,0-1.1,0-1.6h0.9l0.1,1h0c0.3-0.6,1-1.1,1.9-1.1c0.8,0,2.1,0.5,2.1,2.5
				c0,0.4,0.4,2.7,1.1,4.4c0.2,0.5,0.5,1.2,1,2c-0.3-0.1-0.6-0.2-0.8-0.4c-1.3-0.7-2-1.9-2.3-2.5c0-1.1,0-2.2,0-3.3
				c0-0.9-0.3-1.7-1.3-1.7c-0.7,0-1.2,0.5-1.4,1.1c0,0.1-0.1,0.3-0.1,0.5v3.5H129V28.5z"/>
			<path class="st0" d="M98.2,26c0.5-0.1,1.4-0.4,2.5-0.3c1.2,0.1,2.2,0.4,3,1.2c0.7,0.7,1.1,1.8,1,3.1c-0.1,2.4-1.8,4.1-4.6,4
				c-0.9,0-1.7-0.3-2-0.5l0.3-0.8c0.4,0.2,1,0.4,1.8,0.4c2,0.1,3.3-1.1,3.4-3.1c0.1-2-1.1-3.3-3-3.4c-0.7,0-1.2,0-1.4,0.2l-0.1,2.4
				l1.6,0.1l0,0.8L98,29.9L98.2,26z"/>
			<path class="st1" d="M111.5,33.7c-0.5,0.1-1.4,0.4-2.5,0.3c-1.2-0.1-2.2-0.4-3-1.2c-0.7-0.7-1.1-1.8-1-3.1c0.1-2.4,1.8-4.1,4.6-4
				c0.9,0,1.7,0.3,2,0.5l-0.3,0.8c-0.4-0.2-1-0.4-1.8-0.4c-2-0.1-3.3,1.1-3.4,3.1c-0.1,2,1.1,3.3,3,3.4c0.7,0,1.2,0,1.4-0.2l0.1-2.4
				l-1.6-0.1l0-0.8l2.7,0.1L111.5,33.7z"/>
		</g>
		<g>
			<line class="st2" x1="76" y1="35.2" x2="104" y2="35.2"/>
			<rect x="76" y="34.9" class="st3" width="28" height="0.8"/>
		</g>
		<g>
			<line class="st1" x1="107" y1="24.2" x2="135" y2="24.2"/>
			<rect x="107" y="23.9" class="st4" width="28" height="0.7"/>
		</g>
		<g>
			<line class="st1" x1="106" y1="24.2" x2="134" y2="24.2"/>
			<rect x="106" y="23.9" class="st1" width="28" height="0.7"/>
		</g>
		<path class="st8" d="M88.6,24.7c0.2,0.3,0.1,0.7-0.3,0.9c-0.3,0.2-0.7,0.1-0.9-0.2c-0.2-0.3-0.1-0.7,0.2-0.9
			C88.1,24.2,88.4,24.4,88.6,24.7z M92,32.4c-0.7,0.4-1.6,0.1-1.9-0.7l-1.8-5l0.9-0.5l3.1,4.3C92.9,31.1,92.7,32,92,32.4L92,32.4z"
			/>
	</g>
</g>
<g id="logo1">
	<g>
		<path class="st9" d="M12,60.7h1.2v8.5H12V60.7z M12.7,68.1H15c0.6,0,1-0.1,1.3-0.3s0.4-0.6,0.4-1v0c0-0.3,0-0.5-0.1-0.7
			s-0.3-0.4-0.5-0.5s-0.5-0.2-0.8-0.2h-2.6v-1.1h2.6c0.4,0,0.8-0.1,1-0.3s0.3-0.5,0.3-0.9c0-0.4-0.1-0.7-0.4-1s-0.6-0.3-1.1-0.3
			h-2.4v-1.1h2.7c0.6,0,1,0.1,1.4,0.3s0.6,0.5,0.8,0.8s0.3,0.8,0.3,1.2c0,0.3-0.1,0.6-0.2,0.8s-0.3,0.5-0.5,0.7s-0.5,0.3-0.9,0.4
			c0.3,0.1,0.6,0.2,0.9,0.4s0.4,0.4,0.6,0.7s0.2,0.6,0.2,0.9v0c0,0.5-0.1,0.9-0.3,1.2s-0.5,0.6-0.9,0.8s-0.8,0.3-1.3,0.3h-2.8V68.1z
			"/>
		<path class="st9" d="M20.7,69c-0.4-0.2-0.7-0.5-0.9-0.9s-0.3-0.9-0.3-1.5v-0.7c0-0.6,0.1-1.1,0.3-1.5s0.5-0.8,0.9-1
			s0.8-0.3,1.4-0.3c0.5,0,0.9,0.1,1.3,0.4s0.6,0.6,0.8,1.1s0.3,1.1,0.3,1.7v0.4h-4.1v-1h3c0-0.5-0.2-0.9-0.4-1.2s-0.5-0.4-0.9-0.4
			c-0.5,0-0.8,0.1-1.1,0.4s-0.4,0.7-0.4,1.3v0.8c0,0.5,0.1,0.9,0.4,1.2s0.6,0.4,1.1,0.4c0.2,0,0.5,0,0.7-0.1s0.5-0.2,0.6-0.4
			l0.8,0.8c-0.3,0.3-0.6,0.5-1,0.7s-0.8,0.2-1.1,0.2C21.5,69.3,21.1,69.2,20.7,69z"/>
		<path class="st10" d="M26.1,60.7h1.2v1.2h-1.2V60.7z M26.1,63.2h1.2v6.1h-1.2V63.2z"/>
		<path class="st9" d="M29.1,63.2h1.2v6.1h-1.2V63.2z M32.8,65.6c0-0.4-0.1-0.8-0.3-1s-0.5-0.4-0.9-0.4c-0.4,0-0.7,0.1-0.9,0.3
			s-0.3,0.5-0.3,0.9l-0.1-1.2c0.2-0.4,0.4-0.7,0.7-0.8s0.6-0.3,1-0.3c0.7,0,1.2,0.2,1.5,0.6s0.5,1,0.5,1.8v3.7h-1.2V65.6z"/>
		<path class="st9" d="M41.7,64.6v1.5c0,0.6-0.1,1.2-0.4,1.7s-0.6,0.9-1,1.1s-1,0.4-1.6,0.4c-0.6,0-1.1-0.1-1.6-0.4
			s-0.8-0.6-1.1-1.1s-0.4-1-0.4-1.6v-2.5c0-0.6,0.1-1.2,0.4-1.7s0.6-0.9,1-1.1s1-0.4,1.6-0.4c0.5,0,0.9,0.1,1.4,0.3s0.8,0.5,1,0.9
			s0.5,0.8,0.6,1.3h-1.3c-0.1-0.3-0.2-0.5-0.4-0.7s-0.4-0.4-0.6-0.5s-0.5-0.2-0.7-0.2c-0.4,0-0.7,0.1-0.9,0.3s-0.5,0.4-0.6,0.7
			s-0.2,0.7-0.2,1.1v2.5c0,0.4,0.1,0.7,0.2,1s0.4,0.5,0.6,0.6s0.6,0.2,0.9,0.2c0.4,0,0.7-0.1,0.9-0.2s0.5-0.4,0.6-0.7
			s0.2-0.7,0.2-1.1v-0.4h-1.7v-1.1H41.7z"/>
		<path class="st10" d="M49.5,64.6v1.5c0,0.6-0.1,1.2-0.4,1.7s-0.6,0.9-1,1.1s-1,0.4-1.6,0.4c-0.6,0-1.1-0.1-1.6-0.4
			s-0.8-0.6-1.1-1.1s-0.4-1-0.4-1.6v-2.5c0-0.6,0.1-1.2,0.4-1.7s0.6-0.9,1-1.1s1-0.4,1.6-0.4c0.5,0,0.9,0.1,1.4,0.3s0.8,0.5,1,0.9
			s0.5,0.8,0.6,1.3h-1.3c-0.1-0.3-0.2-0.5-0.4-0.7s-0.4-0.4-0.6-0.5s-0.5-0.2-0.7-0.2c-0.4,0-0.7,0.1-0.9,0.3s-0.5,0.4-0.6,0.7
			s-0.2,0.7-0.2,1.1v2.5c0,0.4,0.1,0.7,0.2,1s0.4,0.5,0.6,0.6s0.6,0.2,0.9,0.2c0.4,0,0.7-0.1,0.9-0.2s0.5-0.4,0.6-0.7
			s0.2-0.7,0.2-1.1v-0.4h-1.7v-1.1H49.5z"/>
		<path class="st10" d="M51.3,63.2h1.2v6.1h-1.2V63.2z M54.2,64.3c-0.2-0.1-0.3-0.1-0.6-0.1c-0.4,0-0.7,0.1-0.9,0.3
			s-0.3,0.5-0.3,0.9l-0.1-1.2c0.2-0.4,0.4-0.6,0.7-0.8s0.6-0.3,1-0.3c0.3,0,0.5,0,0.8,0.1s0.4,0.2,0.6,0.4l-0.8,1.1
			C54.5,64.5,54.4,64.4,54.2,64.3z"/>
		<path class="st10" d="M57.3,69c-0.4-0.2-0.7-0.5-0.9-0.9s-0.3-0.9-0.3-1.5v-0.7c0-0.6,0.1-1.1,0.3-1.5s0.5-0.8,0.9-1
			s0.8-0.3,1.4-0.3c0.5,0,0.9,0.1,1.3,0.4s0.6,0.6,0.8,1.1s0.3,1.1,0.3,1.7v0.4H57v-1h3c0-0.5-0.2-0.9-0.4-1.2s-0.5-0.4-0.9-0.4
			c-0.5,0-0.8,0.1-1.1,0.4s-0.4,0.7-0.4,1.3v0.8c0,0.5,0.1,0.9,0.4,1.2s0.6,0.4,1.1,0.4c0.2,0,0.5,0,0.7-0.1s0.5-0.2,0.6-0.4
			l0.8,0.8c-0.3,0.3-0.6,0.5-1,0.7s-0.8,0.2-1.1,0.2C58.2,69.3,57.7,69.2,57.3,69z"/>
		<path class="st10" d="M63.8,69c-0.4-0.2-0.7-0.5-0.9-0.9s-0.3-0.9-0.3-1.5v-0.7c0-0.6,0.1-1.1,0.3-1.5s0.5-0.8,0.9-1
			s0.8-0.3,1.4-0.3c0.5,0,0.9,0.1,1.3,0.4s0.6,0.6,0.8,1.1s0.3,1.1,0.3,1.7v0.4h-4.1v-1h3c0-0.5-0.2-0.9-0.4-1.2s-0.5-0.4-0.9-0.4
			c-0.5,0-0.8,0.1-1.1,0.4s-0.4,0.7-0.4,1.3v0.8c0,0.5,0.1,0.9,0.4,1.2s0.6,0.4,1.1,0.4c0.2,0,0.5,0,0.7-0.1s0.5-0.2,0.6-0.4
			l0.8,0.8c-0.3,0.3-0.6,0.5-1,0.7s-0.8,0.2-1.1,0.2C64.6,69.3,64.2,69.2,63.8,69z"/>
		<path class="st10" d="M69.2,63.2h1.2v6.1h-1.2V63.2z"/>
	</g>
	<path class="st9" d="M73,67c-0.3,5.7-0.2,7,0,7c0.3,0,0.8-3.1,1-4.8c0-0.4,0-0.1,0-3.7c0-0.2,0-1.2-0.5-1.8
		c-0.2-0.2-0.3-0.3-0.3-0.3c-0.5-0.3-1-0.3-1.2-0.3c-0.3,0-0.5,0.1-0.6,0.1c-0.1,0-0.2,0.1-0.4,0.2c-0.1,0.1-0.6,0.4-0.7,0.8
		c-0.2,0.6,0,1.2,0.1,1.2c0.1,0,0-0.5,0.3-0.9c0.3-0.3,0.8-0.3,0.9-0.3c0.2,0,0.6,0,0.9,0.4c0.4,0.4,0.3,0.9,0.3,1"/>
	<path class="st10" d="M67.2,61.9c0.1,0,0.2,0,0.3,0c0-0.1,0.2-0.2,0.3-0.1c0.1,0.1,0,0.4,0.1,0.5c0.1,0,0.2-0.1,0.3-0.1
		c0.1-0.1,0.3-0.1,0.4,0c0-0.1,0-0.2,0-0.3c0.1,0,0.2,0,0.2,0c0-0.1,0-0.2,0-0.2c0.4,0,0.7,0.6,1.1,0.5c0.1,0,0.1,0,0.2,0
		c0,0,0.1,0,0.1,0.1c0.2,0.1,0.4,0.1,0.6,0c0.2-0.1,0.4-0.2,0.6-0.2c0.2,0,0.4,0,0.5-0.1c0,0,0-0.1,0.1-0.1c0.1-0.1,0.2,0.1,0.4,0.2
		c0.2,0.2,0.5,0.2,0.7,0.2c0.1,0,0.3,0,0.4-0.1c0.1-0.1,0.2-0.2,0.2-0.3c0-0.1-0.2-0.3-0.1-0.4c0.1,0.1,0.3,0,0.5-0.1
		c-0.1-0.2,0.1-0.6,0.3-0.6c0.1,0,0.1,0,0.2,0c0.1,0,0.1-0.1,0.1-0.2c0-0.1-0.2-0.1-0.2-0.2c0-0.1,0.1-0.1,0.1-0.2
		c0.1-0.1,0-0.3-0.1-0.3s-0.2,0-0.4,0.1c0-0.2-0.2-0.5-0.4-0.5c0.1-0.1,0.2-0.3,0.1-0.4c-0.1-0.1-0.3-0.2-0.4-0.1
		c0.1-0.1,0-0.3-0.1-0.4c-0.1-0.1-0.3-0.1-0.4-0.1c0-0.2-0.1-0.4-0.1-0.6c0-0.1,0-0.2-0.1-0.2c-0.1-0.1-0.4-0.1-0.5-0.2
		c0,0-0.1-0.1-0.1-0.1c-0.1,0-0.1,0.1-0.2,0.1c0,0-0.1,0-0.1,0c-0.2-0.1-0.3,0-0.4,0.1c0-0.1-0.2-0.2-0.3-0.2c-0.1,0-0.3,0-0.4,0
		c-0.2,0-0.4-0.1-0.6-0.1s-0.5,0.1-0.5,0.3c0,0.1,0,0.2,0,0.3c0,0-0.1,0.1-0.2,0.1c-0.1,0.1-0.2,0.2-0.2,0.3
		C69,58.1,68.9,58,68.9,58c0-0.1,0-0.2,0-0.2c0,0,0.1,0,0.1-0.1c0.1-0.1,0.1-0.2,0.2-0.3c0,0,0-0.1,0-0.1c0,0,0,0-0.1-0.1
		c-0.1-0.1-0.3-0.1-0.4-0.2c-0.1-0.1-0.3-0.1-0.4,0c0,0,0,0.1-0.1,0.1c-0.1,0.1-0.2,0-0.3,0.1c-0.1,0.1-0.1,0.2-0.1,0.3
		c0,0-0.1,0-0.2,0.1c-0.1,0-0.1,0.1-0.1,0.2c0,0.1,0.1,0.1,0.2,0.2c0.1,0,0.1,0,0.2-0.1s0.2,0,0.2,0.1c0,0.1-0.1,0.1-0.1,0.1
		c-0.1,0-0.1,0-0.2,0c-0.2,0-0.4,0.2-0.6,0.1c-0.1,0-0.1-0.1-0.2-0.1c-0.1,0-0.2,0.2-0.3,0.2c-0.1,0.1-0.3,0-0.4,0.1
		c0,0,0,0.1,0,0.1c0,0.2-0.2,0.3-0.4,0.3c-0.1,0.1-0.3,0.1-0.4,0.2c-0.1,0.1-0.2,0.2-0.2,0.4c0,0.1,0.1,0.2,0.1,0.4
		c-0.1,0-0.2,0.1-0.2,0.1c-0.1,0.1-0.1,0.2,0,0.3c0.1,0.1,0.3,0,0.4,0c0,0.1,0,0.1,0,0.2c0.1,0,0.3,0,0.4,0c0,0,0,0.1,0,0.1
		c0.1-0.1,0.3,0,0.5-0.1c0.1,0,0.2-0.1,0.2-0.2s0.2-0.1,0.3,0c-0.2,0.2-0.4,0.3-0.6,0.4c-0.1,0-0.3,0.1-0.4,0.2
		c-0.1,0.1-0.2,0.3-0.1,0.4c-0.1,0-0.2,0-0.3,0c0,0.1,0,0.2,0,0.3c0.2,0,0.3,0.1,0.4,0.2c0,0.1,0,0.1,0.1,0.2
		c0.1,0.2,0.3,0.2,0.4,0.2c0.2,0,0.3-0.1,0.5-0.2"/>
	<path class="st9" d="M69.6,58.9c-0.1-0.1-0.2-0.2-0.3-0.3c0,0-0.1-0.1-0.1-0.1c0,0-0.1,0-0.1,0c-0.2,0.1-0.4-0.1-0.6-0.1
		c-0.3-0.1-0.6,0.1-0.8,0.2c-0.1,0-0.1,0.1-0.1,0.2c-0.1,0-0.2-0.1-0.3-0.1c-0.1,0-0.2,0.1-0.2,0.2c-0.1,0.1-0.2-0.1-0.4,0
		c-0.1,0-0.2,0.2-0.2,0.3c0,0.1,0,0.3-0.1,0.4l0,0c0.1,0,0.3,0.1,0.4,0.1c0,0,0.1,0.1,0.1,0.1c0.1,0.1,0.4,0.2,0.6,0.1
		c0.1-0.1,0.2-0.2,0.3-0.2c0.1-0.1,0.3-0.1,0.4,0c0.1,0.1,0.2,0.3,0.3,0.4c0.1,0,0.2-0.1,0.3-0.2c0.1-0.1,0.2-0.2,0.4-0.2
		c0.1,0,0.2,0,0.3,0s0.2-0.1,0.2-0.3c0,0.1-0.2,0-0.2-0.1c0-0.1,0.2-0.1,0.2-0.2C69.8,59.1,69.7,59,69.6,58.9z"/>
	<path class="st9" d="M72.9,58.5c-0.1-0.1-0.1-0.1-0.2-0.2c0,0,0-0.1,0-0.1c0-0.3-0.3-0.7-0.6-0.7c0,0,0,0.1,0,0.1
		c-0.2,0-0.3,0-0.4,0.2c-0.3-0.1-0.5-0.2-0.8-0.3c0,0-0.1,0-0.1,0c0,0,0,0.1-0.1,0.1c-0.1,0.1-0.2,0.1-0.3,0.2
		c-0.1,0-0.3,0.1-0.2,0.3l0,0.1c-0.1,0.2,0.1,0.5,0.4,0.5c0.1,0,0.2,0,0.3,0c0.1,0,0.3,0,0.4,0c0,0,0.1,0,0.1,0
		c0.1,0.1-0.1,0.2-0.1,0.3c0,0,0.1,0.1,0.1,0.1c0.2,0.1,0.5,0.1,0.7,0.1c0.1,0,0.2,0,0.2-0.1c0.1-0.1,0.1-0.2,0.1-0.2
		c0.1-0.1,0.3,0,0.4,0C72.9,58.7,72.9,58.6,72.9,58.5z"/>
	<path class="st9" d="M73.9,60.1c-0.1,0.1-0.3,0-0.4-0.1c-0.1-0.1-0.2-0.2-0.3-0.3c0,0-0.1-0.1-0.1-0.1c-0.1,0-0.2,0-0.3,0
		c-0.3,0-0.6-0.2-0.9-0.1c-0.1,0.1-0.2,0.2-0.4,0.2c-0.1,0-0.1-0.1-0.2-0.1c-0.1,0-0.2,0-0.3,0c-0.2,0.1-0.4,0.2-0.5,0.3l0,0.1
		c-0.1,0-0.1,0-0.1,0.1c0.2,0,0.3,0.2,0.2,0.3c0,0,0,0.1,0,0.1c0,0.1,0.1,0.2,0.3,0.2c0.2,0.1,0.3,0.2,0.4,0.3c0,0,0.1,0.1,0.1,0.1
		c0,0.1-0.1,0.2-0.1,0.3c0,0.1,0.1,0.2,0.2,0.2c0.1,0,0.2-0.1,0.3-0.1c0.1-0.1,0.3-0.1,0.4-0.2c0,0,0.1,0,0.1,0c0,0,0,0,0.1,0
		c0.1,0,0.1,0,0.2-0.1c0.1,0,0.2-0.1,0.2,0c-0.1,0.2,0.2,0.5,0.4,0.4c0-0.1,0-0.2,0.1-0.2c0.1-0.1,0.2-0.1,0.2-0.2
		c0-0.1-0.1-0.2-0.2-0.2c-0.1-0.1-0.2-0.3-0.2-0.4c0,0,0-0.1,0-0.1c0,0,0.1,0,0.1,0c0.2,0,0.4,0,0.6,0c0,0,0.1,0,0.1,0
		C74.1,60.4,74,60.2,73.9,60.1z"/>
</g>
<g id="logo2">
	<g>
		<path class="st9" d="M85,61.7h1.2v8.5H85V61.7z M85.7,69.1H88c0.6,0,1-0.1,1.3-0.3s0.4-0.6,0.4-1v0c0-0.3,0-0.5-0.1-0.7
			s-0.3-0.4-0.5-0.5s-0.5-0.2-0.8-0.2h-2.6v-1.1h2.6c0.4,0,0.8-0.1,1-0.3s0.3-0.5,0.3-0.9c0-0.4-0.1-0.7-0.4-1s-0.6-0.3-1.1-0.3
			h-2.4v-1.1h2.7c0.6,0,1,0.1,1.4,0.3s0.6,0.5,0.8,0.8s0.3,0.8,0.3,1.2c0,0.3-0.1,0.6-0.2,0.8s-0.3,0.5-0.5,0.7s-0.5,0.3-0.9,0.4
			c0.3,0.1,0.6,0.2,0.9,0.4s0.4,0.4,0.6,0.7s0.2,0.6,0.2,0.9v0c0,0.5-0.1,0.9-0.3,1.2s-0.5,0.6-0.9,0.8s-0.8,0.3-1.3,0.3h-2.8V69.1z
			"/>
		<path class="st9" d="M93.7,70c-0.4-0.2-0.7-0.5-0.9-0.9s-0.3-0.9-0.3-1.5v-0.7c0-0.6,0.1-1.1,0.3-1.5s0.5-0.8,0.9-1
			s0.8-0.3,1.4-0.3c0.5,0,0.9,0.1,1.3,0.4s0.6,0.6,0.8,1.1s0.3,1.1,0.3,1.7v0.4h-4.1v-1h3c0-0.5-0.2-0.9-0.4-1.2s-0.5-0.4-0.9-0.4
			c-0.5,0-0.8,0.1-1.1,0.4s-0.4,0.7-0.4,1.3v0.8c0,0.5,0.1,0.9,0.4,1.2s0.6,0.4,1.1,0.4c0.2,0,0.5,0,0.7-0.1s0.5-0.2,0.6-0.4
			l0.8,0.8c-0.3,0.3-0.6,0.5-1,0.7s-0.8,0.2-1.1,0.2C94.5,70.3,94.1,70.2,93.7,70z"/>
		<path class="st10" d="M99.1,61.7h1.2v1.2h-1.2V61.7z M99.1,64.2h1.2v6.1h-1.2V64.2z"/>
		<path class="st9" d="M102.1,64.2h1.2v6.1h-1.2V64.2z M105.8,66.6c0-0.4-0.1-0.8-0.3-1s-0.5-0.4-0.9-0.4c-0.4,0-0.7,0.1-0.9,0.3
			s-0.3,0.5-0.3,0.9l-0.1-1.2c0.2-0.4,0.4-0.7,0.7-0.8s0.6-0.3,1-0.3c0.7,0,1.2,0.2,1.5,0.6s0.5,1,0.5,1.8v3.7h-1.2V66.6z"/>
		<path class="st11" d="M114.7,65.6v1.5c0,0.6-0.1,1.2-0.4,1.7s-0.6,0.9-1,1.1s-1,0.4-1.6,0.4c-0.6,0-1.1-0.1-1.6-0.4
			s-0.8-0.6-1.1-1.1s-0.4-1-0.4-1.6v-2.5c0-0.6,0.1-1.2,0.4-1.7s0.6-0.9,1-1.1s1-0.4,1.6-0.4c0.5,0,0.9,0.1,1.4,0.3s0.8,0.5,1,0.9
			s0.5,0.8,0.6,1.3h-1.3c-0.1-0.3-0.2-0.5-0.4-0.7s-0.4-0.4-0.6-0.5s-0.5-0.2-0.7-0.2c-0.4,0-0.7,0.1-0.9,0.3s-0.5,0.4-0.6,0.7
			s-0.2,0.7-0.2,1.1v2.5c0,0.4,0.1,0.7,0.2,1s0.4,0.5,0.6,0.6s0.6,0.2,0.9,0.2c0.4,0,0.7-0.1,0.9-0.2s0.5-0.4,0.6-0.7
			s0.2-0.7,0.2-1.1v-0.4h-1.7v-1.1H114.7z"/>
		<path class="st12" d="M117.5,71.6v1.5c0,0.6-0.1,1.2-0.4,1.7s-0.6,0.9-1,1.1s-1,0.4-1.6,0.4c-0.6,0-1.1-0.1-1.6-0.4
			s-0.8-0.6-1.1-1.1s-0.4-1-0.4-1.6v-2.5c0-0.6,0.1-1.2,0.4-1.7s0.6-0.9,1-1.1s1-0.4,1.6-0.4c0.5,0,0.9,0.1,1.4,0.3s0.8,0.5,1,0.9
			s0.5,0.8,0.6,1.3h-1.3c-0.1-0.3-0.2-0.5-0.4-0.7s-0.4-0.4-0.6-0.5s-0.5-0.2-0.7-0.2c-0.4,0-0.7,0.1-0.9,0.3s-0.5,0.4-0.6,0.7
			s-0.2,0.7-0.2,1.1v2.5c0,0.4,0.1,0.7,0.2,1s0.4,0.5,0.6,0.6s0.6,0.2,0.9,0.2c0.4,0,0.7-0.1,0.9-0.2s0.5-0.4,0.6-0.7
			s0.2-0.7,0.2-1.1v-0.4h-1.7v-1.1H117.5z"/>
		<path class="st10" d="M119.3,70.2h1.2v6.1h-1.2V70.2z M122.2,71.3c-0.2-0.1-0.3-0.1-0.6-0.1c-0.4,0-0.7,0.1-0.9,0.3
			s-0.3,0.5-0.3,0.9l-0.1-1.2c0.2-0.4,0.4-0.6,0.7-0.8s0.6-0.3,1-0.3c0.3,0,0.5,0,0.8,0.1s0.4,0.2,0.6,0.4l-0.8,1.1
			C122.5,71.5,122.4,71.4,122.2,71.3z"/>
		<path class="st10" d="M125.3,76c-0.4-0.2-0.7-0.5-0.9-0.9s-0.3-0.9-0.3-1.5v-0.7c0-0.6,0.1-1.1,0.3-1.5s0.5-0.8,0.9-1
			s0.8-0.3,1.4-0.3c0.5,0,0.9,0.1,1.3,0.4s0.6,0.6,0.8,1.1s0.3,1.1,0.3,1.7v0.4H125v-1h3c0-0.5-0.2-0.9-0.4-1.2s-0.5-0.4-0.9-0.4
			c-0.5,0-0.8,0.1-1.1,0.4s-0.4,0.7-0.4,1.3v0.8c0,0.5,0.1,0.9,0.4,1.2s0.6,0.4,1.1,0.4c0.2,0,0.5,0,0.7-0.1s0.5-0.2,0.6-0.4
			l0.8,0.8c-0.3,0.3-0.6,0.5-1,0.7s-0.8,0.2-1.1,0.2C126.2,76.3,125.7,76.2,125.3,76z"/>
		<path class="st10" d="M131.8,76c-0.4-0.2-0.7-0.5-0.9-0.9s-0.3-0.9-0.3-1.5v-0.7c0-0.6,0.1-1.1,0.3-1.5s0.5-0.8,0.9-1
			s0.8-0.3,1.4-0.3c0.5,0,0.9,0.1,1.3,0.4s0.6,0.6,0.8,1.1s0.3,1.1,0.3,1.7v0.4h-4.1v-1h3c0-0.5-0.2-0.9-0.4-1.2s-0.5-0.4-0.9-0.4
			c-0.5,0-0.8,0.1-1.1,0.4s-0.4,0.7-0.4,1.3v0.8c0,0.5,0.1,0.9,0.4,1.2s0.6,0.4,1.1,0.4c0.2,0,0.5,0,0.7-0.1s0.5-0.2,0.6-0.4
			l0.8,0.8c-0.3,0.3-0.6,0.5-1,0.7s-0.8,0.2-1.1,0.2C132.6,76.3,132.2,76.2,131.8,76z"/>
		<path class="st10" d="M137.2,70.2h1.2v6.1h-1.2V70.2z"/>
	</g>
	<path class="st9" d="M141,77c0.5-1,1.2-2.6,1-4.5c-0.1-0.8-0.2-1.7-0.9-2.1c-0.6-0.4-1.5-0.4-2.2,0c-0.1,0.1-0.6,0.3-0.7,0.8
		c-0.2,0.6,0,1.2,0.1,1.2c0.1,0,0-0.5,0.3-0.9c0.3-0.3,0.7-0.3,0.9-0.3c0.7,0.1,1.3,1.7,1.4,3.8"/>
	<path class="st10" d="M135.2,68.9c0.1,0,0.2,0,0.3,0c0-0.1,0.2-0.2,0.3-0.1c0.1,0.1,0,0.4,0.1,0.5c0.1,0,0.2-0.1,0.3-0.1
		c0.1-0.1,0.3-0.1,0.4,0c0-0.1,0-0.2,0-0.3c0.1,0,0.2,0,0.2,0c0-0.1,0-0.2,0-0.2c0.4,0,0.7,0.6,1.1,0.5c0.1,0,0.1,0,0.2,0
		c0,0,0.1,0,0.1,0.1c0.2,0.1,0.4,0.1,0.6,0c0.2-0.1,0.4-0.2,0.6-0.2c0.2,0,0.4,0,0.5-0.1c0,0,0-0.1,0.1-0.1c0.1-0.1,0.2,0.1,0.4,0.2
		c0.2,0.2,0.5,0.2,0.7,0.2c0.1,0,0.3,0,0.4-0.1s0.2-0.2,0.2-0.3c0-0.1-0.2-0.3-0.1-0.4c0.1,0.1,0.3,0,0.5-0.1
		c-0.1-0.2,0.1-0.6,0.3-0.6c0.1,0,0.1,0,0.2,0c0.1,0,0.1-0.1,0.1-0.2c0-0.1-0.2-0.1-0.2-0.2c0-0.1,0.1-0.1,0.1-0.2
		c0.1-0.1,0-0.3-0.1-0.3s-0.2,0-0.4,0.1c0-0.2-0.2-0.5-0.4-0.5c0.1-0.1,0.2-0.3,0.1-0.4c-0.1-0.1-0.3-0.2-0.4-0.1
		c0.1-0.1,0-0.3-0.1-0.4c-0.1-0.1-0.3-0.1-0.4-0.1c0-0.2-0.1-0.4-0.1-0.6c0-0.1,0-0.2-0.1-0.2c-0.1-0.1-0.4-0.1-0.5-0.2
		c0,0-0.1-0.1-0.1-0.1c-0.1,0-0.1,0.1-0.2,0.1c0,0-0.1,0-0.1,0c-0.2-0.1-0.3,0-0.4,0.1c0-0.1-0.2-0.2-0.3-0.2c-0.1,0-0.3,0-0.4,0
		c-0.2,0-0.4-0.1-0.6-0.1c-0.2,0-0.5,0.1-0.5,0.3c0,0.1,0,0.2,0,0.3c0,0-0.1,0.1-0.2,0.1c-0.1,0.1-0.2,0.2-0.2,0.3
		c-0.1-0.1-0.1-0.1-0.2-0.2s0-0.2,0-0.2c0,0,0.1,0,0.1-0.1c0.1-0.1,0.1-0.2,0.2-0.3c0,0,0-0.1,0-0.1c0,0,0,0-0.1-0.1
		c-0.1-0.1-0.3-0.1-0.4-0.2c-0.1-0.1-0.3-0.1-0.4,0c0,0,0,0.1-0.1,0.1c-0.1,0.1-0.2,0-0.3,0.1c-0.1,0.1-0.1,0.2-0.1,0.3
		c0,0-0.1,0-0.2,0.1c-0.1,0-0.1,0.1-0.1,0.2c0,0.1,0.1,0.1,0.2,0.2c0.1,0,0.1,0,0.2-0.1c0.1,0,0.2,0,0.2,0.1c0,0.1-0.1,0.1-0.1,0.1
		c-0.1,0-0.1,0-0.2,0c-0.2,0-0.4,0.2-0.6,0.1c-0.1,0-0.1-0.1-0.2-0.1c-0.1,0-0.2,0.2-0.3,0.2c-0.1,0.1-0.3,0-0.4,0.1
		c0,0,0,0.1,0,0.1c0,0.2-0.2,0.3-0.4,0.3c-0.1,0.1-0.3,0.1-0.4,0.2c-0.1,0.1-0.2,0.2-0.2,0.4c0,0.1,0.1,0.2,0.1,0.4
		c-0.1,0-0.2,0.1-0.2,0.1s-0.1,0.2,0,0.3c0.1,0.1,0.3,0,0.4,0c0,0.1,0,0.1,0,0.2c0.1,0,0.3,0,0.4,0c0,0,0,0.1,0,0.1
		c0.1-0.1,0.3,0,0.5-0.1c0.1,0,0.2-0.1,0.2-0.2s0.2-0.1,0.3,0c-0.2,0.2-0.4,0.3-0.6,0.4c-0.1,0-0.3,0.1-0.4,0.2
		c-0.1,0.1-0.2,0.3-0.1,0.4c-0.1,0-0.2,0-0.3,0c0,0.1,0,0.2,0,0.3c0.2,0,0.3,0.1,0.4,0.2c0,0.1,0,0.1,0.1,0.2
		c0.1,0.2,0.3,0.2,0.4,0.2c0.2,0,0.3-0.1,0.5-0.2"/>
	<path class="st9" d="M137.6,65.9c-0.1-0.1-0.2-0.2-0.3-0.3c0,0-0.1-0.1-0.1-0.1c0,0-0.1,0-0.1,0c-0.2,0.1-0.4-0.1-0.6-0.1
		c-0.3-0.1-0.6,0.1-0.8,0.2c-0.1,0-0.1,0.1-0.1,0.2c-0.1,0-0.2-0.1-0.3-0.1S135,65.9,135,66c-0.1,0.1-0.2-0.1-0.4,0
		c-0.1,0-0.2,0.2-0.2,0.3s0,0.3-0.1,0.4l0,0c0.1,0,0.3,0.1,0.4,0.1c0,0,0.1,0.1,0.1,0.1c0.1,0.1,0.4,0.2,0.6,0.1
		c0.1-0.1,0.2-0.2,0.3-0.2c0.1-0.1,0.3-0.1,0.4,0c0.1,0.1,0.2,0.3,0.3,0.4c0.1,0,0.2-0.1,0.3-0.2c0.1-0.1,0.2-0.2,0.4-0.2
		c0.1,0,0.2,0,0.3,0c0.1,0,0.2-0.1,0.2-0.3c0,0.1-0.2,0-0.2-0.1c0-0.1,0.2-0.1,0.2-0.2C137.8,66.1,137.7,66,137.6,65.9z"/>
	<path class="st9" d="M140.9,65.5c-0.1-0.1-0.1-0.1-0.2-0.2c0,0,0-0.1,0-0.1c0-0.3-0.3-0.7-0.6-0.7c0,0,0,0.1,0,0.1
		c-0.2,0-0.3,0-0.4,0.2c-0.3-0.1-0.5-0.2-0.8-0.3c0,0-0.1,0-0.1,0c0,0,0,0.1-0.1,0.1c-0.1,0.1-0.2,0.1-0.3,0.2
		c-0.1,0-0.3,0.1-0.2,0.3l0,0.1c-0.1,0.2,0.1,0.5,0.4,0.5c0.1,0,0.2,0,0.3,0c0.1,0,0.3,0,0.4,0c0,0,0.1,0,0.1,0
		c0.1,0.1-0.1,0.2-0.1,0.3c0,0,0.1,0.1,0.1,0.1c0.2,0.1,0.5,0.1,0.7,0.1c0.1,0,0.2,0,0.2-0.1c0.1-0.1,0.1-0.2,0.1-0.2
		c0.1-0.1,0.3,0,0.4,0C140.9,65.7,140.9,65.6,140.9,65.5z"/>
	<path class="st9" d="M141.9,67.1c-0.1,0.1-0.3,0-0.4-0.1c-0.1-0.1-0.2-0.2-0.3-0.3c0,0-0.1-0.1-0.1-0.1c-0.1,0-0.2,0-0.3,0
		c-0.3,0-0.6-0.2-0.9-0.1c-0.1,0.1-0.2,0.2-0.4,0.2c-0.1,0-0.1-0.1-0.2-0.1c-0.1,0-0.2,0-0.3,0c-0.2,0.1-0.4,0.2-0.5,0.3l0,0.1
		c-0.1,0-0.1,0-0.1,0.1c0.2,0,0.3,0.2,0.2,0.3c0,0,0,0.1,0,0.1c0,0.1,0.1,0.2,0.3,0.2c0.2,0.1,0.3,0.2,0.4,0.3c0,0,0.1,0.1,0.1,0.1
		c0,0.1-0.1,0.2-0.1,0.3c0,0.1,0.1,0.2,0.2,0.2c0.1,0,0.2-0.1,0.3-0.1c0.1-0.1,0.3-0.1,0.4-0.2c0,0,0.1,0,0.1,0c0,0,0,0,0.1,0
		c0.1,0,0.1,0,0.2-0.1c0.1,0,0.2-0.1,0.2,0c-0.1,0.2,0.2,0.5,0.4,0.4c0-0.1,0-0.2,0.1-0.2c0.1-0.1,0.2-0.1,0.2-0.2
		c0-0.1-0.1-0.2-0.2-0.2c-0.1-0.1-0.2-0.3-0.2-0.4c0,0,0-0.1,0-0.1c0,0,0.1,0,0.1,0c0.2,0,0.4,0,0.6,0c0,0,0.1,0,0.1,0
		C142.1,67.4,142,67.2,141.9,67.1z"/>
</g>
<g id="logo3_1_">
	<g id="logo3">
		<g>
			<path class="st9" d="M154,62.7h1.2v8.5H154V62.7z M154.7,70.1h2.3c0.6,0,1-0.1,1.3-0.3s0.4-0.6,0.4-1v0c0-0.3,0-0.5-0.1-0.7
				s-0.3-0.4-0.5-0.5s-0.5-0.2-0.8-0.2h-2.6v-1.1h2.6c0.4,0,0.8-0.1,1-0.3s0.3-0.5,0.3-0.9c0-0.4-0.1-0.7-0.4-1s-0.6-0.3-1.1-0.3
				h-2.4v-1.1h2.7c0.6,0,1,0.1,1.4,0.3s0.6,0.5,0.8,0.8s0.3,0.8,0.3,1.2c0,0.3-0.1,0.6-0.2,0.8s-0.3,0.5-0.5,0.7s-0.5,0.3-0.9,0.4
				c0.3,0.1,0.6,0.2,0.9,0.4s0.4,0.4,0.6,0.7s0.2,0.6,0.2,0.9v0c0,0.5-0.1,0.9-0.3,1.2s-0.5,0.6-0.9,0.8s-0.8,0.3-1.3,0.3h-2.8V70.1
				z"/>
			<path class="st9" d="M162.7,71c-0.4-0.2-0.7-0.5-0.9-0.9s-0.3-0.9-0.3-1.5v-0.7c0-0.6,0.1-1.1,0.3-1.5s0.5-0.8,0.9-1
				s0.8-0.3,1.4-0.3c0.5,0,0.9,0.1,1.3,0.4s0.6,0.6,0.8,1.1s0.3,1.1,0.3,1.7v0.4h-4.1v-1h3c0-0.5-0.2-0.9-0.4-1.2s-0.5-0.4-0.9-0.4
				c-0.5,0-0.8,0.1-1.1,0.4s-0.4,0.7-0.4,1.3v0.8c0,0.5,0.1,0.9,0.4,1.2s0.6,0.4,1.1,0.4c0.2,0,0.5,0,0.7-0.1s0.5-0.2,0.6-0.4
				l0.8,0.8c-0.3,0.3-0.6,0.5-1,0.7s-0.8,0.2-1.1,0.2C163.5,71.3,163.1,71.2,162.7,71z"/>
			<path class="st10" d="M168.1,62.7h1.2v1.2h-1.2V62.7z M168.1,65.2h1.2v6.1h-1.2V65.2z"/>
			<path class="st9" d="M171.1,65.2h1.2v6.1h-1.2V65.2z M174.8,67.6c0-0.4-0.1-0.8-0.3-1s-0.5-0.4-0.9-0.4c-0.4,0-0.7,0.1-0.9,0.3
				s-0.3,0.5-0.3,0.9l-0.1-1.2c0.2-0.4,0.4-0.7,0.7-0.8s0.6-0.3,1-0.3c0.7,0,1.2,0.2,1.5,0.6s0.5,1,0.5,1.8v3.7h-1.2V67.6z"/>
			<path class="st11" d="M183.7,66.6v1.5c0,0.6-0.1,1.2-0.4,1.7s-0.6,0.9-1,1.1s-1,0.4-1.6,0.4c-0.6,0-1.1-0.1-1.6-0.4
				s-0.8-0.6-1.1-1.1s-0.4-1-0.4-1.6v-2.5c0-0.6,0.1-1.2,0.4-1.7s0.6-0.9,1-1.1s1-0.4,1.6-0.4c0.5,0,0.9,0.1,1.4,0.3s0.8,0.5,1,0.9
				s0.5,0.8,0.6,1.3h-1.3c-0.1-0.3-0.2-0.5-0.4-0.7s-0.4-0.4-0.6-0.5s-0.5-0.2-0.7-0.2c-0.4,0-0.7,0.1-0.9,0.3s-0.5,0.4-0.6,0.7
				s-0.2,0.7-0.2,1.1v2.5c0,0.4,0.1,0.7,0.2,1s0.4,0.5,0.6,0.6s0.6,0.2,0.9,0.2c0.4,0,0.7-0.1,0.9-0.2s0.5-0.4,0.6-0.7
				s0.2-0.7,0.2-1.1v-0.4h-1.7v-1.1H183.7z"/>
			<path class="st12" d="M186.5,72.6v1.5c0,0.6-0.1,1.2-0.4,1.7s-0.6,0.9-1,1.1s-1,0.4-1.6,0.4c-0.6,0-1.1-0.1-1.6-0.4
				s-0.8-0.6-1.1-1.1s-0.4-1-0.4-1.6v-2.5c0-0.6,0.1-1.2,0.4-1.7s0.6-0.9,1-1.1s1-0.4,1.6-0.4c0.5,0,0.9,0.1,1.4,0.3s0.8,0.5,1,0.9
				s0.5,0.8,0.6,1.3h-1.3c-0.1-0.3-0.2-0.5-0.4-0.7s-0.4-0.4-0.6-0.5s-0.5-0.2-0.7-0.2c-0.4,0-0.7,0.1-0.9,0.3s-0.5,0.4-0.6,0.7
				s-0.2,0.7-0.2,1.1v2.5c0,0.4,0.1,0.7,0.2,1s0.4,0.5,0.6,0.6s0.6,0.2,0.9,0.2c0.4,0,0.7-0.1,0.9-0.2s0.5-0.4,0.6-0.7
				s0.2-0.7,0.2-1.1v-0.4h-1.7v-1.1H186.5z"/>
			<path class="st10" d="M188.3,71.2h1.2v6.1h-1.2V71.2z M191.2,72.3c-0.2-0.1-0.3-0.1-0.6-0.1c-0.4,0-0.7,0.1-0.9,0.3
				s-0.3,0.5-0.3,0.9l-0.1-1.2c0.2-0.4,0.4-0.6,0.7-0.8s0.6-0.3,1-0.3c0.3,0,0.5,0,0.8,0.1s0.4,0.2,0.6,0.4l-0.8,1.1
				C191.5,72.5,191.4,72.4,191.2,72.3z"/>
			<path class="st10" d="M194.3,77c-0.4-0.2-0.7-0.5-0.9-0.9s-0.3-0.9-0.3-1.5v-0.7c0-0.6,0.1-1.1,0.3-1.5s0.5-0.8,0.9-1
				s0.8-0.3,1.4-0.3c0.5,0,0.9,0.1,1.3,0.4s0.6,0.6,0.8,1.1s0.3,1.1,0.3,1.7v0.4H194v-1h3c0-0.5-0.2-0.9-0.4-1.2s-0.5-0.4-0.9-0.4
				c-0.5,0-0.8,0.1-1.1,0.4s-0.4,0.7-0.4,1.3v0.8c0,0.5,0.1,0.9,0.4,1.2s0.6,0.4,1.1,0.4c0.2,0,0.5,0,0.7-0.1s0.5-0.2,0.6-0.4
				l0.8,0.8c-0.3,0.3-0.6,0.5-1,0.7s-0.8,0.2-1.1,0.2C195.2,77.3,194.7,77.2,194.3,77z"/>
			<path class="st10" d="M200.8,77c-0.4-0.2-0.7-0.5-0.9-0.9s-0.3-0.9-0.3-1.5v-0.7c0-0.6,0.1-1.1,0.3-1.5s0.5-0.8,0.9-1
				s0.8-0.3,1.4-0.3c0.5,0,0.9,0.1,1.3,0.4s0.6,0.6,0.8,1.1s0.3,1.1,0.3,1.7v0.4h-4.1v-1h3c0-0.5-0.2-0.9-0.4-1.2s-0.5-0.4-0.9-0.4
				c-0.5,0-0.8,0.1-1.1,0.4s-0.4,0.7-0.4,1.3v0.8c0,0.5,0.1,0.9,0.4,1.2s0.6,0.4,1.1,0.4c0.2,0,0.5,0,0.7-0.1s0.5-0.2,0.6-0.4
				l0.8,0.8c-0.3,0.3-0.6,0.5-1,0.7s-0.8,0.2-1.1,0.2C201.6,77.3,201.2,77.2,200.8,77z"/>
			<path class="st10" d="M206.2,71.2h1.2v6.1h-1.2V71.2z"/>
		</g>
		<path class="st10" d="M204.2,69.9c0.1,0,0.2,0,0.3,0c0-0.1,0.2-0.2,0.3-0.1c0.1,0.1,0,0.4,0.1,0.5c0.1,0,0.2-0.1,0.3-0.1
			c0.1-0.1,0.3-0.1,0.4,0c0-0.1,0-0.2,0-0.3c0.1,0,0.2,0,0.2,0c0-0.1,0-0.2,0-0.2c0.4,0,0.7,0.6,1.1,0.5c0.1,0,0.1,0,0.2,0
			c0,0,0.1,0,0.1,0.1c0.2,0.1,0.4,0.1,0.6,0c0.2-0.1,0.4-0.2,0.6-0.2c0.2,0,0.4,0,0.5-0.1c0,0,0-0.1,0.1-0.1
			c0.1-0.1,0.2,0.1,0.4,0.2c0.2,0.2,0.5,0.2,0.7,0.2c0.1,0,0.3,0,0.4-0.1s0.2-0.2,0.2-0.3c0-0.1-0.2-0.3-0.1-0.4
			c0.1,0.1,0.3,0,0.5-0.1c-0.1-0.2,0.1-0.6,0.3-0.6c0.1,0,0.1,0,0.2,0c0.1,0,0.1-0.1,0.1-0.2c0-0.1-0.2-0.1-0.2-0.2
			c0-0.1,0.1-0.1,0.1-0.2c0.1-0.1,0-0.3-0.1-0.3s-0.2,0-0.4,0.1c0-0.2-0.2-0.5-0.4-0.5c0.1-0.1,0.2-0.3,0.1-0.4
			c-0.1-0.1-0.3-0.2-0.4-0.1c0.1-0.1,0-0.3-0.1-0.4c-0.1-0.1-0.3-0.1-0.4-0.1c0-0.2-0.1-0.4-0.1-0.6c0-0.1,0-0.2-0.1-0.2
			c-0.1-0.1-0.4-0.1-0.5-0.2c0,0-0.1-0.1-0.1-0.1c-0.1,0-0.1,0.1-0.2,0.1c0,0-0.1,0-0.1,0c-0.2-0.1-0.3,0-0.4,0.1
			c0-0.1-0.2-0.2-0.3-0.2c-0.1,0-0.3,0-0.4,0c-0.2,0-0.4-0.1-0.6-0.1c-0.2,0-0.5,0.1-0.5,0.3c0,0.1,0,0.2,0,0.3c0,0-0.1,0.1-0.2,0.1
			c-0.1,0.1-0.2,0.2-0.2,0.3c-0.1-0.1-0.1-0.1-0.2-0.2s0-0.2,0-0.2c0,0,0.1,0,0.1-0.1c0.1-0.1,0.1-0.2,0.2-0.3c0,0,0-0.1,0-0.1
			c0,0,0,0-0.1-0.1c-0.1-0.1-0.3-0.1-0.4-0.2c-0.1-0.1-0.3-0.1-0.4,0c0,0,0,0.1-0.1,0.1c-0.1,0.1-0.2,0-0.3,0.1
			c-0.1,0.1-0.1,0.2-0.1,0.3c0,0-0.1,0-0.2,0.1c-0.1,0-0.1,0.1-0.1,0.2c0,0.1,0.1,0.1,0.2,0.2c0.1,0,0.1,0,0.2-0.1
			c0.1,0,0.2,0,0.2,0.1c0,0.1-0.1,0.1-0.1,0.1c-0.1,0-0.1,0-0.2,0c-0.2,0-0.4,0.2-0.6,0.1c-0.1,0-0.1-0.1-0.2-0.1
			c-0.1,0-0.2,0.2-0.3,0.2c-0.1,0.1-0.3,0-0.4,0.1c0,0,0,0.1,0,0.1c0,0.2-0.2,0.3-0.4,0.3c-0.1,0.1-0.3,0.1-0.4,0.2
			c-0.1,0.1-0.2,0.2-0.2,0.4c0,0.1,0.1,0.2,0.1,0.4c-0.1,0-0.2,0.1-0.2,0.1s-0.1,0.2,0,0.3c0.1,0.1,0.3,0,0.4,0c0,0.1,0,0.1,0,0.2
			c0.1,0,0.3,0,0.4,0c0,0,0,0.1,0,0.1c0.1-0.1,0.3,0,0.5-0.1c0.1,0,0.2-0.1,0.2-0.2s0.2-0.1,0.3,0c-0.2,0.2-0.4,0.3-0.6,0.4
			c-0.1,0-0.3,0.1-0.4,0.2c-0.1,0.1-0.2,0.3-0.1,0.4c-0.1,0-0.2,0-0.3,0c0,0.1,0,0.2,0,0.3c0.2,0,0.3,0.1,0.4,0.2
			c0,0.1,0,0.1,0.1,0.2c0.1,0.2,0.3,0.2,0.4,0.2c0.2,0,0.3-0.1,0.5-0.2"/>
		<path class="st9" d="M206.6,66.9c-0.1-0.1-0.2-0.2-0.3-0.3c0,0-0.1-0.1-0.1-0.1c0,0-0.1,0-0.1,0c-0.2,0.1-0.4-0.1-0.6-0.1
			c-0.3-0.1-0.6,0.1-0.8,0.2c-0.1,0-0.1,0.1-0.1,0.2c-0.1,0-0.2-0.1-0.3-0.1S204,66.9,204,67c-0.1,0.1-0.2-0.1-0.4,0
			c-0.1,0-0.2,0.2-0.2,0.3s0,0.3-0.1,0.4l0,0c0.1,0,0.3,0.1,0.4,0.1c0,0,0.1,0.1,0.1,0.1c0.1,0.1,0.4,0.2,0.6,0.1
			c0.1-0.1,0.2-0.2,0.3-0.2c0.1-0.1,0.3-0.1,0.4,0c0.1,0.1,0.2,0.3,0.3,0.4c0.1,0,0.2-0.1,0.3-0.2c0.1-0.1,0.2-0.2,0.4-0.2
			c0.1,0,0.2,0,0.3,0c0.1,0,0.2-0.1,0.2-0.3c0,0.1-0.2,0-0.2-0.1c0-0.1,0.2-0.1,0.2-0.2C206.8,67.1,206.7,67,206.6,66.9z"/>
		<path class="st9" d="M209.9,66.5c-0.1-0.1-0.1-0.1-0.2-0.2c0,0,0-0.1,0-0.1c0-0.3-0.3-0.7-0.6-0.7c0,0,0,0.1,0,0.1
			c-0.2,0-0.3,0-0.4,0.2c-0.3-0.1-0.5-0.2-0.8-0.3c0,0-0.1,0-0.1,0c0,0,0,0.1-0.1,0.1c-0.1,0.1-0.2,0.1-0.3,0.2
			c-0.1,0-0.3,0.1-0.2,0.3l0,0.1c-0.1,0.2,0.1,0.5,0.4,0.5c0.1,0,0.2,0,0.3,0c0.1,0,0.3,0,0.4,0c0,0,0.1,0,0.1,0
			c0.1,0.1-0.1,0.2-0.1,0.3c0,0,0.1,0.1,0.1,0.1c0.2,0.1,0.5,0.1,0.7,0.1c0.1,0,0.2,0,0.2-0.1c0.1-0.1,0.1-0.2,0.1-0.2
			c0.1-0.1,0.3,0,0.4,0C209.9,66.7,209.9,66.6,209.9,66.5z"/>
		<path class="st9" d="M210.9,68.1c-0.1,0.1-0.3,0-0.4-0.1c-0.1-0.1-0.2-0.2-0.3-0.3c0,0-0.1-0.1-0.1-0.1c-0.1,0-0.2,0-0.3,0
			c-0.3,0-0.6-0.2-0.9-0.1c-0.1,0.1-0.2,0.2-0.4,0.2c-0.1,0-0.1-0.1-0.2-0.1c-0.1,0-0.2,0-0.3,0c-0.2,0.1-0.4,0.2-0.5,0.3l0,0.1
			c-0.1,0-0.1,0-0.1,0.1c0.2,0,0.3,0.2,0.2,0.3c0,0,0,0.1,0,0.1c0,0.1,0.1,0.2,0.3,0.2c0.2,0.1,0.3,0.2,0.4,0.3c0,0,0.1,0.1,0.1,0.1
			c0,0.1-0.1,0.2-0.1,0.3c0,0.1,0.1,0.2,0.2,0.2c0.1,0,0.2-0.1,0.3-0.1c0.1-0.1,0.3-0.1,0.4-0.2c0,0,0.1,0,0.1,0c0,0,0,0,0.1,0
			c0.1,0,0.1,0,0.2-0.1c0.1,0,0.2-0.1,0.2,0c-0.1,0.2,0.2,0.5,0.4,0.4c0-0.1,0-0.2,0.1-0.2c0.1-0.1,0.2-0.1,0.2-0.2
			c0-0.1-0.1-0.2-0.2-0.2c-0.1-0.1-0.2-0.3-0.2-0.4c0,0,0-0.1,0-0.1c0,0,0.1,0,0.1,0c0.2,0,0.4,0,0.6,0c0,0,0.1,0,0.1,0
			C211.1,68.4,211,68.2,210.9,68.1z"/>
	</g>
	<linearGradient id="SVGID_1_" gradientUnits="userSpaceOnUse" x1="206.9816" y1="74.1948" x2="210.9028" y2="74.1948">
		<stop  offset="6.172649e-08" style="stop-color:#A5D47D"/>
		<stop  offset="0.1668" style="stop-color:#9DCC78"/>
		<stop  offset="0.4298" style="stop-color:#88B56A"/>
		<stop  offset="0.7542" style="stop-color:#659053"/>
		<stop  offset="0.8749" style="stop-color:#568149"/>
	</linearGradient>
	<path class="st13" d="M209.8,77.7c0.5-1,1.2-2.6,1-4.5c-0.1-0.8-0.2-1.7-0.9-2.1c-0.6-0.4-1.5-0.4-2.2,0c-0.1,0.1-0.6,0.3-0.7,0.8
		c-0.2,0.6,0,1.2,0.1,1.2c0.1,0,0-0.5,0.3-0.9c0.3-0.3,0.7-0.3,0.9-0.3c0.7,0.1,1.3,1.7,1.4,3.8"/>
</g>
</svg>
