<?xml version="1.0" encoding="utf-8"?>
<!-- Generator: Adobe Illustrator 24.1.1, SVG Export Plug-In . SVG Version: 6.00 Build 0)  -->
<svg version="1.1" id="Calque_1" xmlns="http://www.w3.org/2000/svg" xmlns:xlink="http://www.w3.org/1999/xlink" x="0px" y="0px"
	 viewBox="0 0 58 15" style="enable-background:new 0 0 58 15;" xml:space="preserve">
<style type="text/css">
	.st0{fill:#568149;}
	.st1{fill:#A5D47D;}
	.st2{fill:#568149;stroke:#FFFFFF;stroke-width:0.5;stroke-miterlimit:10;}
	.st3{fill:#A5D47D;stroke:#FFFFFF;stroke-width:0.5;stroke-miterlimit:10;}
	.st4{fill:url(#SVGID_1_);}
</style>
<g id="logo3_1_">
	<g id="logo3">
		<g>
			<path class="st0" d="M0,0.3h1.2v8.5H0V0.3z M0.7,7.7H3c0.6,0,1-0.1,1.3-0.3s0.4-0.6,0.4-1v0c0-0.3,0-0.5-0.1-0.7S4.3,5.3,4.1,5.2
				C3.9,5.1,3.6,5,3.3,5H0.7V3.9h2.6c0.4,0,0.8-0.1,1-0.3s0.3-0.5,0.3-0.9c0-0.4-0.1-0.7-0.4-1S3.6,1.4,3.1,1.4H0.7V0.3h2.7
				c0.6,0,1,0.1,1.4,0.3S5.3,1,5.5,1.4s0.3,0.8,0.3,1.2c0,0.3-0.1,0.6-0.2,0.8S5.3,3.9,5.1,4.1S4.6,4.4,4.2,4.5
				c0.3,0.1,0.6,0.2,0.9,0.4s0.4,0.4,0.6,0.7s0.2,0.6,0.2,0.9v0c0,0.5-0.1,0.9-0.3,1.2S5.1,8.4,4.7,8.5S3.9,8.8,3.4,8.8H0.7V7.7z"/>
			<path class="st0" d="M8.6,8.6C8.2,8.4,7.9,8.1,7.7,7.7S7.4,6.8,7.4,6.2V5.5c0-0.6,0.1-1.1,0.3-1.5s0.5-0.8,0.9-1S9.4,2.7,10,2.7
				c0.5,0,0.9,0.1,1.3,0.4s0.6,0.6,0.8,1.1s0.3,1.1,0.3,1.7v0.4H8.3v-1h3c0-0.5-0.2-0.9-0.4-1.2S10.3,3.7,10,3.7
				c-0.5,0-0.8,0.1-1.1,0.4S8.5,4.9,8.5,5.4v0.8c0,0.5,0.1,0.9,0.4,1.2s0.6,0.4,1.1,0.4c0.2,0,0.5,0,0.7-0.1s0.5-0.2,0.6-0.4L12.2,8
				c-0.3,0.3-0.6,0.5-1,0.7s-0.8,0.2-1.1,0.2C9.5,8.9,9,8.8,8.6,8.6z"/>
			<path class="st1" d="M14,0.3h1.2v1.2H14V0.3z M14,2.8h1.2v6.1H14V2.8z"/>
			<path class="st0" d="M17,2.8h1.2v6.1H17V2.8z M20.7,5.1c0-0.4-0.1-0.8-0.3-1s-0.5-0.4-0.9-0.4c-0.4,0-0.7,0.1-0.9,0.3
				S18.2,4.6,18.2,5l-0.1-1.2c0.2-0.4,0.4-0.7,0.7-0.8s0.6-0.3,1-0.3c0.7,0,1.2,0.2,1.5,0.6s0.5,1,0.5,1.8v3.7h-1.2V5.1z"/>
			<path class="st2" d="M29.7,4.2v1.5c0,0.6-0.1,1.2-0.4,1.7s-0.6,0.9-1,1.1s-1,0.4-1.6,0.4c-0.6,0-1.1-0.1-1.6-0.4
				C24.7,8.3,24.3,8,24,7.5s-0.4-1-0.4-1.6V3.4c0-0.6,0.1-1.2,0.4-1.7s0.6-0.9,1-1.1s1-0.4,1.6-0.4c0.5,0,0.9,0.1,1.4,0.3
				s0.8,0.5,1,0.9s0.5,0.8,0.6,1.3h-1.3c-0.1-0.3-0.2-0.5-0.4-0.7s-0.4-0.4-0.6-0.5s-0.5-0.2-0.7-0.2c-0.4,0-0.7,0.1-0.9,0.3
				S25.3,2,25.1,2.3S24.9,3,24.9,3.4v2.5c0,0.4,0.1,0.7,0.2,1s0.4,0.5,0.6,0.6s0.6,0.2,0.9,0.2c0.4,0,0.7-0.1,0.9-0.2
				s0.5-0.4,0.6-0.7s0.2-0.7,0.2-1.1V5.4h-1.7V4.2H29.7z"/>
			<path class="st3" d="M32.4,10.2v1.5c0,0.6-0.1,1.2-0.4,1.7s-0.6,0.9-1,1.1s-1,0.4-1.6,0.4c-0.6,0-1.1-0.1-1.6-0.4
				s-0.8-0.6-1.1-1.1s-0.4-1-0.4-1.6V9.4c0-0.6,0.1-1.2,0.4-1.7s0.6-0.9,1-1.1s1-0.4,1.6-0.4c0.5,0,0.9,0.1,1.4,0.3s0.8,0.5,1,0.9
				s0.5,0.8,0.6,1.3h-1.3C31,8.5,30.9,8.2,30.7,8s-0.4-0.4-0.6-0.5s-0.5-0.2-0.7-0.2c-0.4,0-0.7,0.1-0.9,0.3S28,8,27.9,8.3
				S27.7,9,27.7,9.4v2.5c0,0.4,0.1,0.7,0.2,1s0.4,0.5,0.6,0.6s0.6,0.2,0.9,0.2c0.4,0,0.7-0.1,0.9-0.2s0.5-0.4,0.6-0.7
				s0.2-0.7,0.2-1.1v-0.4h-1.7v-1.1H32.4z"/>
			<path class="st1" d="M34.2,8.8h1.2v6.1h-1.2V8.8z M37.2,9.9c-0.2-0.1-0.3-0.1-0.6-0.1c-0.4,0-0.7,0.1-0.9,0.3s-0.3,0.5-0.3,0.9
				l-0.1-1.2C35.5,9.4,35.7,9.2,36,9s0.6-0.3,1-0.3c0.3,0,0.5,0,0.8,0.1s0.4,0.2,0.6,0.4l-0.8,1.1C37.5,10.1,37.4,10,37.2,9.9z"/>
			<path class="st1" d="M40.3,14.6c-0.4-0.2-0.7-0.5-0.9-0.9s-0.3-0.9-0.3-1.5v-0.7c0-0.6,0.1-1.1,0.3-1.5s0.5-0.8,0.9-1
				s0.8-0.3,1.4-0.3c0.5,0,0.9,0.1,1.3,0.4s0.6,0.6,0.8,1.1s0.3,1.1,0.3,1.7v0.4h-4.1v-1h3c0-0.5-0.2-0.9-0.4-1.2S42,9.7,41.6,9.7
				c-0.5,0-0.8,0.1-1.1,0.4s-0.4,0.7-0.4,1.3v0.8c0,0.5,0.1,0.9,0.4,1.2s0.6,0.4,1.1,0.4c0.2,0,0.5,0,0.7-0.1s0.5-0.2,0.6-0.4
				l0.8,0.8c-0.3,0.3-0.6,0.5-1,0.7s-0.8,0.2-1.1,0.2C41.2,14.9,40.7,14.8,40.3,14.6z"/>
			<path class="st1" d="M46.7,14.6c-0.4-0.2-0.7-0.5-0.9-0.9s-0.3-0.9-0.3-1.5v-0.7c0-0.6,0.1-1.1,0.3-1.5s0.5-0.8,0.9-1
				s0.8-0.3,1.4-0.3c0.5,0,0.9,0.1,1.3,0.4s0.6,0.6,0.8,1.1s0.3,1.1,0.3,1.7v0.4h-4.1v-1h3c0-0.5-0.2-0.9-0.4-1.2s-0.5-0.4-0.9-0.4
				c-0.5,0-0.8,0.1-1.1,0.4s-0.4,0.7-0.4,1.3v0.8c0,0.5,0.1,0.9,0.4,1.2s0.6,0.4,1.1,0.4c0.2,0,0.5,0,0.7-0.1s0.5-0.2,0.6-0.4
				l0.8,0.8c-0.3,0.3-0.6,0.5-1,0.7s-0.8,0.2-1.1,0.2C47.6,14.9,47.1,14.8,46.7,14.6z"/>
			<path class="st1" d="M52.1,8.8h1.2v6.1h-1.2V8.8z"/>
		</g>
		<path class="st1" d="M50.2,7.5c0.1,0,0.2,0,0.3,0c0-0.1,0.2-0.2,0.3-0.1c0.1,0.1,0,0.4,0.1,0.5c0.1,0,0.2-0.1,0.3-0.1
			c0.1-0.1,0.3-0.1,0.4,0c0-0.1,0-0.2,0-0.3c0.1,0,0.2,0,0.2,0c0-0.1,0-0.2,0-0.2c0.4,0,0.7,0.6,1.1,0.5c0.1,0,0.1,0,0.2,0
			c0,0,0.1,0,0.1,0.1c0.2,0.1,0.4,0.1,0.6,0c0.2-0.1,0.4-0.2,0.6-0.2c0.2,0,0.4,0,0.5-0.1c0,0,0-0.1,0.1-0.1
			c0.1-0.1,0.2,0.1,0.4,0.2c0.2,0.2,0.5,0.2,0.7,0.2c0.1,0,0.3,0,0.4-0.1c0.1-0.1,0.2-0.2,0.2-0.3c0-0.1-0.2-0.3-0.1-0.4
			c0.1,0.1,0.3,0,0.5-0.1c-0.1-0.2,0.1-0.6,0.3-0.6c0.1,0,0.1,0,0.2,0c0.1,0,0.1-0.1,0.1-0.2c0-0.1-0.2-0.1-0.2-0.2
			c0-0.1,0.1-0.1,0.1-0.2c0.1-0.1,0-0.3-0.1-0.3c-0.1,0-0.2,0-0.4,0.1c0-0.2-0.2-0.5-0.4-0.5c0.1-0.1,0.2-0.3,0.1-0.4
			c-0.1-0.1-0.3-0.2-0.4-0.1c0.1-0.1,0-0.3-0.1-0.4S56,4,55.9,4c0-0.2-0.1-0.4-0.1-0.6c0-0.1,0-0.2-0.1-0.2
			c-0.1-0.1-0.4-0.1-0.5-0.2c0,0-0.1-0.1-0.1-0.1c-0.1,0-0.1,0.1-0.2,0.1c0,0-0.1,0-0.1,0c-0.2-0.1-0.3,0-0.4,0.1
			c0-0.1-0.2-0.2-0.3-0.2c-0.1,0-0.3,0-0.4,0c-0.2,0-0.4-0.1-0.6-0.1c-0.2,0-0.5,0.1-0.5,0.3c0,0.1,0,0.2,0,0.3c0,0-0.1,0.1-0.2,0.1
			c-0.1,0.1-0.2,0.2-0.2,0.3c-0.1-0.1-0.1-0.1-0.2-0.2c0-0.1,0-0.2,0-0.2c0,0,0.1,0,0.1-0.1c0.1-0.1,0.1-0.2,0.2-0.3
			c0,0,0-0.1,0-0.1c0,0,0,0-0.1-0.1c-0.1-0.1-0.3-0.1-0.4-0.2c-0.1-0.1-0.3-0.1-0.4,0c0,0,0,0.1-0.1,0.1c-0.1,0.1-0.2,0-0.3,0.1
			c-0.1,0.1-0.1,0.2-0.1,0.3c0,0-0.1,0-0.2,0.1c-0.1,0-0.1,0.1-0.1,0.2c0,0.1,0.1,0.1,0.2,0.2c0.1,0,0.1,0,0.2-0.1
			c0.1,0,0.2,0,0.2,0.1c0,0.1-0.1,0.1-0.1,0.1c-0.1,0-0.1,0-0.2,0c-0.2,0-0.4,0.2-0.6,0.1c-0.1,0-0.1-0.1-0.2-0.1
			c-0.1,0-0.2,0.2-0.3,0.2c-0.1,0.1-0.3,0-0.4,0.1c0,0,0,0.1,0,0.1c0,0.2-0.2,0.3-0.4,0.3c-0.1,0.1-0.3,0.1-0.4,0.2
			c-0.1,0.1-0.2,0.2-0.2,0.4c0,0.1,0.1,0.2,0.1,0.4c-0.1,0-0.2,0.1-0.2,0.1c-0.1,0.1-0.1,0.2,0,0.3c0.1,0.1,0.3,0,0.4,0
			c0,0.1,0,0.1,0,0.2c0.1,0,0.3,0,0.4,0c0,0,0,0.1,0,0.1c0.1-0.1,0.3,0,0.5-0.1c0.1,0,0.2-0.1,0.2-0.2c0.1,0,0.2-0.1,0.3,0
			c-0.2,0.2-0.4,0.3-0.6,0.4c-0.1,0-0.3,0.1-0.4,0.2C49,6.6,49,6.8,49.1,6.9c-0.1,0-0.2,0-0.3,0c0,0.1,0,0.2,0,0.3
			c0.2,0,0.3,0.1,0.4,0.2c0,0.1,0,0.1,0.1,0.2c0.1,0.2,0.3,0.2,0.4,0.2c0.2,0,0.3-0.1,0.5-0.2"/>
		<path class="st0" d="M52.6,4.5c-0.1-0.1-0.2-0.2-0.3-0.3c0,0-0.1-0.1-0.1-0.1c0,0-0.1,0-0.1,0c-0.2,0.1-0.4-0.1-0.6-0.1
			c-0.3-0.1-0.6,0.1-0.8,0.2c-0.1,0-0.1,0.1-0.1,0.2c-0.1,0-0.2-0.1-0.3-0.1c-0.1,0-0.2,0.1-0.2,0.2c-0.1,0.1-0.2-0.1-0.4,0
			c-0.1,0-0.2,0.2-0.2,0.3c0,0.1,0,0.3-0.1,0.4l0,0c0.1,0,0.3,0.1,0.4,0.1c0,0,0.1,0.1,0.1,0.1c0.1,0.1,0.4,0.2,0.6,0.1
			c0.1-0.1,0.2-0.2,0.3-0.2c0.1-0.1,0.3-0.1,0.4,0c0.1,0.1,0.2,0.3,0.3,0.4c0.1,0,0.2-0.1,0.3-0.2c0.1-0.1,0.2-0.2,0.4-0.2
			c0.1,0,0.2,0,0.3,0c0.1,0,0.2-0.1,0.2-0.3c0,0.1-0.2,0-0.2-0.1c0-0.1,0.2-0.1,0.2-0.2C52.7,4.7,52.7,4.6,52.6,4.5z"/>
		<path class="st0" d="M55.8,4.1C55.8,4.1,55.7,4,55.6,4c0,0,0-0.1,0-0.1c0-0.3-0.3-0.7-0.6-0.7c0,0,0,0.1,0,0.1
			c-0.2,0-0.3,0-0.4,0.2c-0.3-0.1-0.5-0.2-0.8-0.3c0,0-0.1,0-0.1,0c0,0,0,0.1-0.1,0.1c-0.1,0.1-0.2,0.1-0.3,0.2
			c-0.1,0-0.3,0.1-0.2,0.3l0,0.1c-0.1,0.2,0.1,0.5,0.4,0.5c0.1,0,0.2,0,0.3,0c0.1,0,0.3,0,0.4,0c0,0,0.1,0,0.1,0
			c0.1,0.1-0.1,0.2-0.1,0.3c0,0,0.1,0.1,0.1,0.1c0.2,0.1,0.5,0.1,0.7,0.1c0.1,0,0.2,0,0.2-0.1c0.1-0.1,0.1-0.2,0.1-0.2
			c0.1-0.1,0.3,0,0.4,0C55.9,4.3,55.9,4.2,55.8,4.1z"/>
		<path class="st0" d="M56.9,5.7c-0.1,0.1-0.3,0-0.4-0.1c-0.1-0.1-0.2-0.2-0.3-0.3c0,0-0.1-0.1-0.1-0.1c-0.1,0-0.2,0-0.3,0
			c-0.3,0-0.6-0.2-0.9-0.1c-0.1,0.1-0.2,0.2-0.4,0.2c-0.1,0-0.1-0.1-0.2-0.1c-0.1,0-0.2,0-0.3,0c-0.2,0.1-0.4,0.2-0.5,0.3l0,0.1
			c-0.1,0-0.1,0-0.1,0.1c0.2,0,0.3,0.2,0.2,0.3c0,0,0,0.1,0,0.1c0,0.1,0.1,0.2,0.3,0.2c0.2,0.1,0.3,0.2,0.4,0.3c0,0,0.1,0.1,0.1,0.1
			c0,0.1-0.1,0.2-0.1,0.3c0,0.1,0.1,0.2,0.2,0.2c0.1,0,0.2-0.1,0.3-0.1C54.9,7,55,7,55.2,6.9c0,0,0.1,0,0.1,0c0,0,0,0,0.1,0
			c0.1,0,0.1,0,0.2-0.1c0.1,0,0.2-0.1,0.2,0c-0.1,0.2,0.2,0.5,0.4,0.4c0-0.1,0-0.2,0.1-0.2s0.2-0.1,0.2-0.2c0-0.1-0.1-0.2-0.2-0.2
			C56.1,6.5,56,6.4,56,6.2c0,0,0-0.1,0-0.1c0,0,0.1,0,0.1,0c0.2,0,0.4,0,0.6,0c0,0,0.1,0,0.1,0C57,6,57,5.8,56.9,5.7z"/>
	</g>
	<linearGradient id="SVGID_1_" gradientUnits="userSpaceOnUse" x1="52.9442" y1="11.7924" x2="56.8654" y2="11.7924">
		<stop  offset="6.172649e-08" style="stop-color:#A5D47D"/>
		<stop  offset="0.1668" style="stop-color:#9DCC78"/>
		<stop  offset="0.4298" style="stop-color:#88B56A"/>
		<stop  offset="0.7542" style="stop-color:#659053"/>
		<stop  offset="0.8749" style="stop-color:#568149"/>
	</linearGradient>
	<path class="st4" d="M55.8,15.3c0.5-1,1.2-2.6,1-4.5C56.8,10,56.7,9.1,56,8.7c-0.6-0.4-1.5-0.4-2.2,0C53.6,8.7,53.2,9,53,9.5
		c-0.2,0.6,0,1.2,0.1,1.2c0.1,0,0-0.5,0.3-0.9c0.3-0.3,0.7-0.3,0.9-0.3c0.7,0.1,1.3,1.7,1.4,3.8"/>
</g>
</svg>
