<?xml version="1.0" encoding="utf-8"?>
<!-- Generator: Adobe Illustrator 24.1.1, SVG Export Plug-In . SVG Version: 6.00 Build 0)  -->
<svg version="1.1" id="Calque_1" xmlns="http://www.w3.org/2000/svg" xmlns:xlink="http://www.w3.org/1999/xlink" x="0px" y="0px"
	 viewBox="0 0 228.2 263.8" style="enable-background:new 0 0 228.2 263.8;" xml:space="preserve">
<style type="text/css">
	.st0{fill:#9DFF8B;}
	.st1{fill:#26FF4E;}
</style>
<g>
	<g>
		<path class="st0" d="M154.7,67.4h11.6c1.7,0,3-1.3,3-3V23.2c0-1.7-1.3-3-3-3h-11.6c-40,0-72.4,32.4-72.4,72.4v10.5
			c0,1.1-0.9,2-2,2H60.1c-1.7,0-3,1.3-3,3v41.3c0,1.7,1.3,3,3,3h20.2c1.1,0,2,0.9,2,2v81.4c0,1.7,1.3,3,3,3h41.3c1.7,0,3-1.3,3-3
			v-81.4c0-1.1,0.9-2,2-2h20.2c1.7,0,3-1.3,3-3v-41.3c0-1.7-1.3-3-3-3h-20.2c-1.1,0-2-0.9-2-2V92.5
			C129.6,78.7,140.9,67.4,154.7,67.4L154.7,67.4z"/>
	</g>
	<g>
		<g>
			<path class="st1" d="M115,154.3v81.4c0,1.7-1.3,3-3,3h14.6c1.7,0,3-1.3,3-3v-81.4c0-1.1,0.9-2,2-2H117
				C115.9,152.3,115,153.2,115,154.3L115,154.3z"/>
		</g>
		<g>
			<path class="st1" d="M151.9,105.1h-14.6c1.7,0,3,1.3,3,3v41.3c0,1.7-1.3,3-3,3h14.6c1.7,0,3-1.3,3-3v-41.3
				C154.9,106.4,153.5,105.1,151.9,105.1z"/>
		</g>
		<g>
			<path class="st1" d="M166.3,20.2h-11.6c-0.8,0-1.6,0-2.4,0.1c1.4,0.3,2.4,1.5,2.4,2.9v41.3c0,1.7-1.3,3-3,3h-11.6
				c-13.9,0-25.1,11.2-25.1,25.1v10.5c0,1.1,0.9,2,2,2h14.6c-1.1,0-2-0.9-2-2V92.5c0-13.9,11.2-25.1,25.1-25.1h11.6c1.7,0,3-1.3,3-3
				V23.2C169.3,21.5,168,20.2,166.3,20.2z"/>
		</g>
	</g>
</g>
</svg>
