<?xml version="1.0" encoding="utf-8"?>
<!-- Generator: Adobe Illustrator 24.1.1, SVG Export Plug-In . SVG Version: 6.00 Build 0)  -->
<svg version="1.1" id="Calque_1" xmlns="http://www.w3.org/2000/svg" xmlns:xlink="http://www.w3.org/1999/xlink" x="0px" y="0px"
	 viewBox="0 0 269.6 215.7" style="enable-background:new 0 0 269.6 215.7;" xml:space="preserve">
<style type="text/css">
	.st0{fill:#B3FF8D;}
	.st1{fill:#87FF64;}
	.st2{fill:#ECF4FF;}
</style>
<g>
	<g>
		<path class="st0" d="M192,199.3H77.6c-19,0-34.5-15.4-34.5-34.5V50.4c0-19,15.4-34.5,34.5-34.5H192c19,0,34.5,15.4,34.5,34.5
			v114.4C226.5,183.9,211.1,199.3,192,199.3z"/>
	</g>
	<g>
		<path class="st1" d="M203.7,18c1.3,3.6,2,7.6,2,11.7V144c0,19-15.4,34.5-34.5,34.5H56.8c-4.1,0-8-0.7-11.7-2
			c4.8,13.3,17.5,22.8,32.5,22.8H192c19,0,34.5-15.4,34.5-34.5V50.5C226.5,35.5,217,22.8,203.7,18L203.7,18z"/>
	</g>
	<g>
		<path class="st2" d="M134.8,151.6c-24.2,0-43.9-19.7-43.9-43.9c0-24.2,19.7-43.9,43.9-43.9s43.9,19.7,43.9,43.9
			C178.7,131.9,159,151.6,134.8,151.6L134.8,151.6z M134.8,78.7c-15.9,0-28.9,13-28.9,28.9s13,28.9,28.9,28.9s28.9-13,28.9-28.9
			S150.8,78.7,134.8,78.7z"/>
	</g>
	<g>
		<circle class="st2" cx="186.3" cy="56.1" r="10.6"/>
	</g>
</g>
</svg>
