<?xml version="1.0" encoding="utf-8"?>
<!-- Generator: Adobe Illustrator 24.1.1, SVG Export Plug-In . SVG Version: 6.00 Build 0)  -->
<svg version="1.1" id="Calque_1" xmlns="http://www.w3.org/2000/svg" xmlns:xlink="http://www.w3.org/1999/xlink" x="0px" y="0px"
	 viewBox="0 0 285 228" style="enable-background:new 0 0 285 228;" xml:space="preserve">
<style type="text/css">
	.st0{fill:#FFD064;}
	.st1{fill:#B3FF8D;}
	.st2{fill:#87FF64;}
</style>
<g>
	<g>
		<path class="st0" d="M181.6,122.4l40.8-7.4c8.5-1.5,14.1-9.6,12.6-18.1l0,0c-1.5-8.5-9.6-14.1-18.1-12.6l-40.8,7.4L181.6,122.4z"
			/>
	</g>
	<g>
		<path class="st1" d="M216.7,184.5l-9.8-16.9c-6.4-11.1-9.8-23.7-9.8-36.5V67.1c0-30.1-24.4-54.6-54.6-54.6S87.9,36.9,87.9,67.1
			V131c0,12.8-3.4,25.4-9.8,36.5l-9.8,16.9c-2.7,4.7,0.7,10.5,6.1,10.5h28.8c5.4,0,10.3,2.7,13.5,7c5.8,8,15.2,13.2,25.8,13.2
			s20-5.2,25.8-13.2c3.2-4.3,8.1-7,13.5-7h28.8C216,195,219.4,189.1,216.7,184.5L216.7,184.5z"/>
	</g>
	<g>
		<g>
			<path class="st2" d="M216.7,184.5l-9.8-16.9c-6.4-11.1-9.8-23.7-9.8-36.5V67.1c0-30.1-24.4-54.6-54.6-54.6
				c-4.4,0-8.6,0.5-12.6,1.5c24.1,5.7,42,27.3,42,53.1V131c0,12.8,3.4,25.4,9.8,36.5l9.8,16.9c2.7,4.7-0.7,10.5-6.1,10.5h25.3
				C216,195,219.4,189.1,216.7,184.5L216.7,184.5z"/>
		</g>
	</g>
	<g>
		<path class="st2" d="M181.6,122.4l40.8-7.4c8.5-1.5,14.1-9.6,12.6-18.1l0,0c-1.5-8.5-9.6-14.1-18.1-12.6l-40.8,7.4L181.6,122.4z"
			/>
	</g>
	<g>
		<path class="st1" d="M103.4,122.4L62.6,115c-8.5-1.5-14.1-9.6-12.6-18.1l0,0c1.5-8.5,9.6-14.1,18.1-12.6l40.8,7.4L103.4,122.4z"/>
	</g>
</g>
</svg>
