<?xml version="1.0" encoding="utf-8"?>
<!-- Generator: Adobe Illustrator 24.1.1, SVG Export Plug-In . SVG Version: 6.00 Build 0)  -->
<svg version="1.1" id="Calque_1" xmlns="http://www.w3.org/2000/svg" xmlns:xlink="http://www.w3.org/1999/xlink" x="0px" y="0px"
	 viewBox="0 0 239.5 191.6" style="enable-background:new 0 0 239.5 191.6;" xml:space="preserve">
<style type="text/css">
	.st0{fill:#B3FF8D;stroke:#FFFFFF;stroke-miterlimit:10;}
	.st1{fill:#FFFDFA;}
</style>
<g>
	<path class="st0" d="M196.3,128.5c-3.3,0-6.5-0.2-9.6-0.5c-1.2-0.1-1.8-1.6-0.9-2.5c0,0,0,0,0,0c27.6-28.4,32.6-70.5,15.4-103.9
		c-1.1-2.1-4-2.2-5.2-0.3c-3.2,5.1-7,9.9-11.3,14.3c-14.8,15.3-33.7,24.1-53.3,26.6c-0.6,0.1-1.1-0.4-1.1-1
		c-1.4-25.8-22.7-46.3-48.9-46.3c-18.8,0-35.2,10.7-43.4,26.3c-0.3,0.7-1,1.1-1.8,1.1H12.8c-1.5,0-2.5,1.6-1.8,2.9
		c1.6,3.1,4.8,8.3,10.6,12.4c0.6,0.4,0.5,1.4-0.2,1.7l-9.9,4.6c-1.4,0.6-1.6,2.5-0.4,3.4c3.5,2.8,10.8,7.3,20.9,7.3
		c0.9,0,1.7,0.6,1.9,1.5c3.6,14.1,13.4,25.8,26.3,31.9c0.8,0.4,1.4,1.1,1.6,1.9c10.3,38.3,45.3,66.4,86.8,66.4
		c34.6,0,64.7-19.6,79.7-48.3c1.3-2.4-1.1-5.1-3.6-4.2C215.8,126.8,206.2,128.5,196.3,128.5L196.3,128.5z"/>
</g>
<g>
	<g>
		<path class="st1" d="M198,128.4c-16.1,24.5-43.7,40.6-75.2,40.6c-3.8,0-7.6-0.2-11.3-0.7c11.3,5.1,23.9,8,37.2,8
			c34.6,0,64.7-19.6,79.7-48.3c1.2-2.4-1-5.1-3.6-4.3C216.4,126.7,207.4,128.3,198,128.4L198,128.4z"/>
	</g>
</g>
</svg>
